<svg width="14" height="13" viewBox="0 0 14 13" fill="none" xmlns="http://www.w3.org/2000/svg">
<path d="M4.59375 1.9375C4.21094 1.9375 3.9375 2.23828 3.9375 2.59375V10.9062C3.9375 11.1523 3.88281 11.3711 3.80078 11.5625H12.0312C12.3867 11.5625 12.6875 11.2891 12.6875 10.9062V2.59375C12.6875 2.23828 12.3867 1.9375 12.0312 1.9375H4.59375ZM1.96875 12.875C0.875 12.875 0 12 0 10.9062V2.8125C0 2.45703 0.273438 2.15625 0.65625 2.15625C1.01172 2.15625 1.3125 2.45703 1.3125 2.8125V10.9062C1.3125 11.2891 1.58594 11.5625 1.96875 11.5625C2.32422 11.5625 2.625 11.2891 2.625 10.9062V2.59375C2.625 1.52734 3.5 0.625 4.59375 0.625H12.0312C13.0977 0.625 14 1.52734 14 2.59375V10.9062C14 12 13.0977 12.875 12.0312 12.875H1.96875ZM4.8125 3.46875C4.8125 3.11328 5.08594 2.8125 5.46875 2.8125H8.09375C8.44922 2.8125 8.75 3.11328 8.75 3.46875V5.65625C8.75 6.03906 8.44922 6.3125 8.09375 6.3125H5.46875C5.08594 6.3125 4.8125 6.03906 4.8125 5.65625V3.46875ZM10.2812 2.8125H11.1562C11.5117 2.8125 11.8125 3.11328 11.8125 3.46875C11.8125 3.85156 11.5117 4.125 11.1562 4.125H10.2812C9.89844 4.125 9.625 3.85156 9.625 3.46875C9.625 3.11328 9.89844 2.8125 10.2812 2.8125ZM10.2812 5H11.1562C11.5117 5 11.8125 5.30078 11.8125 5.65625C11.8125 6.03906 11.5117 6.3125 11.1562 6.3125H10.2812C9.89844 6.3125 9.625 6.03906 9.625 5.65625C9.625 5.30078 9.89844 5 10.2812 5ZM5.46875 7.1875H11.1562C11.5117 7.1875 11.8125 7.48828 11.8125 7.84375C11.8125 8.22656 11.5117 8.5 11.1562 8.5H5.46875C5.08594 8.5 4.8125 8.22656 4.8125 7.84375C4.8125 7.48828 5.08594 7.1875 5.46875 7.1875ZM5.46875 9.375H11.1562C11.5117 9.375 11.8125 9.67578 11.8125 10.0312C11.8125 10.4141 11.5117 10.6875 11.1562 10.6875H5.46875C5.08594 10.6875 4.8125 10.4141 4.8125 10.0312C4.8125 9.67578 5.08594 9.375 5.46875 9.375Z" fill="#005F9F"/>
</svg>
