<svg width="233" height="208" viewBox="0 0 233 208" fill="none" xmlns="http://www.w3.org/2000/svg">
<g clip-path="url(#clip0_12564_5052)">
<path d="M229.658 171.015L138.04 12.3286C133.584 4.60861 125.601 0 116.687 0C107.774 0 99.7905 4.60918 95.3338 12.3286L3.71601 171.015C-0.741273 178.735 -0.741273 187.952 3.71601 195.672C8.17271 203.391 16.1552 208.001 25.0692 208.001H208.305C217.218 208.001 225.201 203.392 229.658 195.673C234.115 187.953 234.115 178.735 229.658 171.016V171.015Z" fill="url(#paint0_linear_12564_5052)"/>
<path d="M100.969 105.514C100.969 108.983 98.0218 111.681 94.6818 111.681C91.1452 111.681 88.3945 108.983 88.3945 105.514C88.3945 92.0234 99.5937 80.8455 113.543 80.8455H119.831C133.584 80.8455 144.98 92.0234 144.98 105.514V106.285C144.98 114.765 140.461 122.473 133.388 127.099L125.136 132.302C123.76 133.073 122.974 134.615 122.974 136.157V136.35C122.974 139.819 120.027 142.517 116.687 142.517C113.15 142.517 110.4 139.819 110.4 136.35V136.157C110.4 130.375 113.347 124.979 118.259 121.895L126.511 116.692C130.047 114.379 132.405 110.525 132.405 106.285V105.514C132.405 98.7686 126.707 93.1797 119.831 93.1797H113.543C106.47 93.1797 100.969 98.7686 100.969 105.514ZM116.687 167.185C113.74 167.185 111.186 165.836 109.81 163.331C108.435 161.018 108.435 158.127 109.81 155.622C111.186 153.309 113.74 151.767 116.687 151.767C119.438 151.767 121.992 153.309 123.367 155.622C124.743 158.127 124.743 161.018 123.367 163.331C121.992 165.836 119.438 167.185 116.687 167.185Z" fill="#002F4F"/>
<path d="M208.304 198.768H25.0689C19.4927 198.768 14.4983 195.885 11.7102 191.056C8.92212 186.227 8.92212 180.46 11.7102 175.631L103.328 16.944C106.116 12.1147 111.11 9.23145 116.686 9.23145C122.262 9.23145 127.256 12.1147 130.044 16.944L221.662 175.631C224.45 180.46 224.45 186.227 221.662 191.056C218.874 195.885 213.88 198.768 208.304 198.768H208.304ZM116.687 18.463C114.448 18.463 112.442 19.6209 111.323 21.5595L19.7048 180.247C18.5853 182.186 18.5853 184.501 19.7048 186.44C20.8242 188.38 22.8293 189.537 25.0683 189.537H208.304C210.543 189.537 212.548 188.38 213.667 186.44C214.787 184.501 214.787 182.186 213.667 180.247L122.05 21.56C120.931 19.6209 118.926 18.4636 116.687 18.4636V18.463Z" fill="#002F4F"/>
</g>
<defs>
<linearGradient id="paint0_linear_12564_5052" x1="0.373047" y1="0" x2="207.078" y2="231.179" gradientUnits="userSpaceOnUse">
<stop stop-color="#FBDB4C"/>
<stop offset="1" stop-color="#FBAE4C"/>
</linearGradient>
<clipPath id="clip0_12564_5052">
<rect width="232.627" height="208" fill="white" transform="translate(0.373047)"/>
</clipPath>
</defs>
</svg>
