<svg width="14" height="13" viewBox="0 0 14 13" fill="none" xmlns="http://www.w3.org/2000/svg">
<path d="M3.69141 2.97656L2.98047 5H10.9922L10.2812 2.97656C10.1719 2.62109 9.84375 2.375 9.46094 2.375H4.51172C4.12891 2.375 3.80078 2.62109 3.69141 2.97656ZM1.06641 5.13672L2.02344 2.40234C2.40625 1.33594 3.39062 0.625 4.51172 0.625H9.46094C10.582 0.625 11.5664 1.33594 11.9492 2.40234L12.9062 5.13672C13.5352 5.41016 14 6.03906 14 6.75V10.6875V12C14 12.4922 13.5898 12.875 13.125 12.875H12.25C11.7578 12.875 11.375 12.4922 11.375 12V10.6875H2.625V12C2.625 12.4922 2.21484 12.875 1.75 12.875H0.875C0.382812 12.875 0 12.4922 0 12V10.6875V6.75C0 6.03906 0.4375 5.41016 1.06641 5.13672ZM3.5 7.625C3.5 7.16016 3.08984 6.75 2.625 6.75C2.13281 6.75 1.75 7.16016 1.75 7.625C1.75 8.11719 2.13281 8.5 2.625 8.5C3.08984 8.5 3.5 8.11719 3.5 7.625ZM11.375 8.5C11.8398 8.5 12.25 8.11719 12.25 7.625C12.25 7.16016 11.8398 6.75 11.375 6.75C10.8828 6.75 10.5 7.16016 10.5 7.625C10.5 8.11719 10.8828 8.5 11.375 8.5Z" fill="#4E555C"/>
</svg>
