<svg width="20" height="20" viewBox="0 0 20 20" fill="none" xmlns="http://www.w3.org/2000/svg">
<g clip-path="url(#clip0_12579_9559)">
<path d="M9.99958 8.67347C9.81644 8.67347 9.66797 8.525 9.66797 8.34186C9.66797 8.15872 9.81644 8.01025 9.99958 8.01025" stroke="#EC354D" stroke-width="2" stroke-linecap="round" stroke-linejoin="round"/>
<path d="M10 8.67347C10.1831 8.67347 10.3316 8.525 10.3316 8.34186C10.3316 8.15872 10.1831 8.01025 10 8.01025" stroke="#EC354D" stroke-width="2" stroke-linecap="round" stroke-linejoin="round"/>
<path d="M6.35504 8.67347C6.1719 8.67347 6.02344 8.525 6.02344 8.34186C6.02344 8.15872 6.1719 8.01025 6.35504 8.01025" stroke="#EC354D" stroke-width="2" stroke-linecap="round" stroke-linejoin="round"/>
<path d="M6.35547 8.67347C6.53861 8.67347 6.68708 8.525 6.68708 8.34186C6.68708 8.15872 6.53861 8.01025 6.35547 8.01025" stroke="#EC354D" stroke-width="2" stroke-linecap="round" stroke-linejoin="round"/>
<path d="M13.6441 8.67347C13.461 8.67347 13.3125 8.525 13.3125 8.34186C13.3125 8.15872 13.461 8.01025 13.6441 8.01025" stroke="#EC354D" stroke-width="2" stroke-linecap="round" stroke-linejoin="round"/>
<path d="M13.6445 8.67347C13.8277 8.67347 13.9761 8.525 13.9761 8.34186C13.9761 8.15872 13.8277 8.01025 13.6445 8.01025" stroke="#EC354D" stroke-width="2" stroke-linecap="round" stroke-linejoin="round"/>
<path d="M17.296 1.37817H2.70533C2.35354 1.37817 2.01616 1.51792 1.76741 1.76668C1.51865 2.01543 1.37891 2.35281 1.37891 2.7046V13.9792C1.37891 14.331 1.51865 14.6685 1.76741 14.9172C2.01616 15.1659 2.35354 15.3057 2.70533 15.3057H5.35819V18.6217L9.49665 15.3057H17.296C17.6478 15.3057 17.9853 15.1659 18.234 14.9172C18.4827 14.6685 18.6225 14.331 18.6225 13.9792V2.7046C18.6225 2.35281 18.4827 2.01543 18.234 1.76668C17.9853 1.51792 17.6478 1.37817 17.296 1.37817Z" stroke="#EC354D" stroke-width="2" stroke-linecap="round" stroke-linejoin="round"/>
</g>
<defs>
<clipPath id="clip0_12579_9559">
<rect width="20" height="20" fill="white"/>
</clipPath>
</defs>
</svg>
