<svg width="20" height="20" viewBox="0 0 20 20" fill="none" xmlns="http://www.w3.org/2000/svg">
<g clip-path="url(#clip0_12786_11444)">
<path d="M10.0001 8.67347C9.81692 8.67347 9.66846 8.525 9.66846 8.34186C9.66846 8.15872 9.81692 8.01025 10.0001 8.01025" stroke="#EC354D" stroke-width="1.43" stroke-linecap="round" stroke-linejoin="round"/>
<path d="M10 8.67347C10.1831 8.67347 10.3316 8.525 10.3316 8.34186C10.3316 8.15872 10.1831 8.01025 10 8.01025" stroke="#EC354D" stroke-width="1.43" stroke-linecap="round" stroke-linejoin="round"/>
<path d="M6.3526 8.67347C6.16946 8.67347 6.021 8.525 6.021 8.34186C6.021 8.15872 6.16946 8.01025 6.3526 8.01025" stroke="#EC354D" stroke-width="1.43" stroke-linecap="round" stroke-linejoin="round"/>
<path d="M6.35254 8.67347C6.53568 8.67347 6.68415 8.525 6.68415 8.34186C6.68415 8.15872 6.53568 8.01025 6.35254 8.01025" stroke="#EC354D" stroke-width="1.43" stroke-linecap="round" stroke-linejoin="round"/>
<path d="M13.648 8.67347C13.4649 8.67347 13.3164 8.525 13.3164 8.34186C13.3164 8.15872 13.4649 8.01025 13.648 8.01025" stroke="#EC354D" stroke-width="1.43" stroke-linecap="round" stroke-linejoin="round"/>
<path d="M13.6479 8.67347C13.8311 8.67347 13.9796 8.525 13.9796 8.34186C13.9796 8.15872 13.8311 8.01025 13.6479 8.01025" stroke="#EC354D" stroke-width="1.43" stroke-linecap="round" stroke-linejoin="round"/>
<path d="M17.2956 1.37817H2.70485C2.35305 1.37817 2.01567 1.51792 1.76692 1.76668C1.51817 2.01543 1.37842 2.35281 1.37842 2.7046V13.9792C1.37842 14.331 1.51817 14.6685 1.76692 14.9172C2.01567 15.1659 2.35305 15.3057 2.70485 15.3057H5.3577V18.6217L9.49616 15.3057H17.2956C17.6473 15.3057 17.9848 15.1659 18.2335 14.9172C18.4822 14.6685 18.622 14.331 18.622 13.9792V2.7046C18.622 2.35281 18.4822 2.01543 18.2335 1.76668C17.9848 1.51792 17.6473 1.37817 17.2956 1.37817Z" stroke="#EC354D" stroke-width="1.43" stroke-linecap="round" stroke-linejoin="round"/>
</g>
<defs>
<clipPath id="clip0_12786_11444">
<rect width="20" height="20" fill="white"/>
</clipPath>
</defs>
</svg>
