<svg width="179" height="160" viewBox="0 0 179 160" fill="none" xmlns="http://www.w3.org/2000/svg">
<g clip-path="url(#clip0_13068_1302)">
<path d="M176.428 131.55L105.931 9.48353C102.502 3.54508 96.3593 0 89.5002 0C82.6416 0 76.4989 3.54552 73.0696 9.48353L2.57231 131.55C-0.857437 137.488 -0.857437 144.578 2.57231 150.517C6.00161 156.455 12.1439 160 19.003 160H159.997C166.856 160 172.998 156.455 176.428 150.517C179.857 144.579 179.857 137.489 176.428 131.551V131.55Z" fill="url(#paint0_linear_13068_1302)"/>
<path d="M77.4061 81.1647C77.4061 83.8332 75.1384 85.9086 72.5683 85.9086C69.847 85.9086 67.7305 83.8332 67.7305 81.1647C67.7305 70.7873 76.3479 62.189 87.0818 62.189H91.9197C102.502 62.189 111.271 70.7873 111.271 81.1647V81.7577C111.271 88.2806 107.794 94.2105 102.351 97.7685L96.0016 101.771C94.9433 102.364 94.3386 103.55 94.3386 104.736V104.884C94.3386 107.553 92.0708 109.628 89.5007 109.628C86.7795 109.628 84.6629 107.553 84.6629 104.884V104.736C84.6629 100.289 86.9306 96.1377 90.7102 93.7658L97.0599 89.7631C99.7811 87.9841 101.595 85.0192 101.595 81.7577V81.1647C101.595 75.976 97.211 71.6768 91.9197 71.6768H87.0818C81.6393 71.6768 77.4061 75.976 77.4061 81.1647ZM89.5007 128.604C87.233 128.604 85.2676 127.566 84.2094 125.639C83.1511 123.86 83.1511 121.636 84.2094 119.709C85.2676 117.93 87.233 116.744 89.5007 116.744C91.6173 116.744 93.5827 117.93 94.6409 119.709C95.6992 121.636 95.6992 123.86 94.6409 125.639C93.5827 127.566 91.6173 128.604 89.5007 128.604Z" fill="#002F4F"/>
<path d="M159.998 152.899H19.0033C14.7126 152.899 10.8696 150.681 8.72425 146.966C6.5789 143.251 6.5789 138.815 8.72425 135.101L79.2215 13.0338C81.3669 9.31895 85.2099 7.10107 89.5002 7.10107C93.7909 7.10107 97.6334 9.31895 99.7788 13.0338L170.276 135.101C172.421 138.815 172.421 143.251 170.276 146.966C168.131 150.681 164.288 152.899 159.997 152.899H159.998ZM89.5006 14.2023C87.7778 14.2023 86.2345 15.0929 85.3731 16.5842L14.8758 138.651C14.0144 140.143 14.0144 141.924 14.8758 143.416C15.7372 144.907 17.2801 145.798 19.0029 145.798H159.997C161.72 145.798 163.263 144.907 164.124 143.416C164.986 141.924 164.986 140.143 164.124 138.651L93.6277 16.5846C92.7663 15.0929 91.2234 14.2027 89.5006 14.2027V14.2023Z" fill="#002F4F"/>
</g>
<defs>
<linearGradient id="paint0_linear_13068_1302" x1="0" y1="0" x2="158.998" y2="177.879" gradientUnits="userSpaceOnUse">
<stop stop-color="#FBDB4C"/>
<stop offset="1" stop-color="#FBAE4C"/>
</linearGradient>
<clipPath id="clip0_13068_1302">
<rect width="179" height="160" fill="white"/>
</clipPath>
</defs>
</svg>
