<svg width="40" height="41" viewBox="0 0 40 41" fill="none" xmlns="http://www.w3.org/2000/svg">
<rect y="0.333496" width="40" height="40" rx="12" fill="url(#paint0_linear_12775_13313)"/>
<g clip-path="url(#clip0_12775_13313)">
<path d="M19.9996 19.0075C19.8164 19.0075 19.668 18.859 19.668 18.6758C19.668 18.4927 19.8164 18.3442 19.9996 18.3442" stroke="white" stroke-width="1.43" stroke-linecap="round" stroke-linejoin="round"/>
<path d="M20 19.0075C20.1831 19.0075 20.3316 18.859 20.3316 18.6758C20.3316 18.4927 20.1831 18.3442 20 18.3442" stroke="white" stroke-width="1.43" stroke-linecap="round" stroke-linejoin="round"/>
<path d="M16.3521 19.0075C16.169 19.0075 16.0205 18.859 16.0205 18.6758C16.0205 18.4927 16.169 18.3442 16.3521 18.3442" stroke="white" stroke-width="1.43" stroke-linecap="round" stroke-linejoin="round"/>
<path d="M16.3525 19.0075C16.5357 19.0075 16.6841 18.859 16.6841 18.6758C16.6841 18.4927 16.5357 18.3442 16.3525 18.3442" stroke="white" stroke-width="1.43" stroke-linecap="round" stroke-linejoin="round"/>
<path d="M23.647 19.0075C23.4639 19.0075 23.3154 18.859 23.3154 18.6758C23.3154 18.4927 23.4639 18.3442 23.647 18.3442" stroke="white" stroke-width="1.43" stroke-linecap="round" stroke-linejoin="round"/>
<path d="M23.6475 19.0075C23.8306 19.0075 23.9791 18.859 23.9791 18.6758C23.9791 18.4927 23.8306 18.3442 23.6475 18.3442" stroke="white" stroke-width="1.43" stroke-linecap="round" stroke-linejoin="round"/>
<path d="M27.2951 11.7119H12.7044C12.3526 11.7119 12.0152 11.8517 11.7664 12.1004C11.5177 12.3492 11.3779 12.6865 11.3779 13.0383V24.313C11.3779 24.6648 11.5177 25.0022 11.7664 25.2509C12.0152 25.4996 12.3526 25.6394 12.7044 25.6394H15.3572V28.9555L19.4957 25.6394H27.2951C27.6468 25.6394 27.9843 25.4996 28.233 25.2509C28.4817 25.0022 28.6215 24.6648 28.6215 24.313V13.0383C28.6215 12.6865 28.4817 12.3492 28.233 12.1004C27.9843 11.8517 27.6468 11.7119 27.2951 11.7119Z" stroke="white" stroke-width="1.43" stroke-linecap="round" stroke-linejoin="round"/>
</g>
<defs>
<linearGradient id="paint0_linear_12775_13313" x1="0" y1="0.333496" x2="47.4068" y2="27.324" gradientUnits="userSpaceOnUse">
<stop stop-color="#EC367C"/>
<stop offset="1" stop-color="#BA0A4A"/>
</linearGradient>
<clipPath id="clip0_12775_13313">
<rect width="20" height="20" fill="white" transform="translate(10 10.3335)"/>
</clipPath>
</defs>
</svg>
