<svg width="40" height="41" viewBox="0 0 40 41" fill="none" xmlns="http://www.w3.org/2000/svg">
<rect y="0.333496" width="40" height="40" rx="12" fill="url(#paint0_linear_12775_13297)"/>
<g clip-path="url(#clip0_12775_13297)">
<path d="M27.2958 19.0073C27.2958 23.6857 21.8812 27.8486 20.601 28.7674C20.4253 28.8935 20.2167 28.9555 20.0004 28.9555C19.7842 28.9555 19.5755 28.8935 19.3999 28.7674C18.1197 27.8486 12.7051 23.6857 12.7051 19.0073C12.7051 14.9782 15.9713 11.7119 20.0004 11.7119C24.0296 11.7119 27.2958 14.9782 27.2958 19.0073Z" stroke="white" stroke-width="1.43" stroke-linecap="round" stroke-linejoin="round"/>
<path d="M17.3477 18.3443C17.3477 18.6926 17.4163 19.0376 17.5496 19.3595C17.6829 19.6813 17.8783 19.9738 18.1247 20.2201C18.371 20.4665 18.6634 20.6619 18.9853 20.7952C19.3072 20.9285 19.6521 20.9971 20.0005 20.9971C20.3489 20.9971 20.6939 20.9285 21.0157 20.7952C21.3376 20.6619 21.63 20.4665 21.8764 20.2201C22.1227 19.9738 22.3181 19.6813 22.4514 19.3595C22.5848 19.0376 22.6534 18.6926 22.6534 18.3443C22.6534 17.9959 22.5848 17.6509 22.4514 17.3291C22.3181 17.0072 22.1227 16.7148 21.8764 16.4684C21.63 16.2221 21.3376 16.0267 21.0157 15.8933C20.6939 15.76 20.3489 15.6914 20.0005 15.6914C19.6521 15.6914 19.3072 15.76 18.9853 15.8933C18.6634 16.0267 18.371 16.2221 18.1247 16.4684C17.8783 16.7148 17.6829 17.0072 17.5496 17.3291C17.4163 17.6509 17.3477 17.9959 17.3477 18.3443Z" stroke="white" stroke-width="1.43" stroke-linecap="round" stroke-linejoin="round"/>
</g>
<defs>
<linearGradient id="paint0_linear_12775_13297" x1="0" y1="0.333496" x2="40" y2="40.3335" gradientUnits="userSpaceOnUse">
<stop stop-color="#B3DF03"/>
<stop offset="1" stop-color="#00996B"/>
</linearGradient>
<clipPath id="clip0_12775_13297">
<rect width="20" height="20" fill="white" transform="translate(10 10.3335)"/>
</clipPath>
</defs>
</svg>
