<svg width="16" height="15" viewBox="0 0 16 15" fill="none" xmlns="http://www.w3.org/2000/svg">
<path d="M1.875 0.75H14.125C15.082 0.75 15.875 1.54297 15.875 2.5V10.375C15.875 11.3594 15.082 12.125 14.125 12.125H9.3125L9.58594 13H11.5C11.9648 13 12.375 13.4102 12.375 13.875C12.375 14.3672 11.9648 14.75 11.5 14.75H4.5C4.00781 14.75 3.625 14.3672 3.625 13.875C3.625 13.4102 4.00781 13 4.5 13H6.38672L6.6875 12.125H1.875C0.890625 12.125 0.125 11.3594 0.125 10.375V2.5C0.125 1.54297 0.890625 0.75 1.875 0.75ZM14.125 2.5H1.875V10.375H14.125V2.5Z" fill="#4E555C"/>
</svg>
