<svg width="130" height="24" viewBox="0 0 130 24" fill="none" xmlns="http://www.w3.org/2000/svg">
<g clip-path="url(#clip0_12748_9001)">
<path d="M11.4636 20.6893L4.8991 9.917L7.23151 5.89891L16.3082 20.6893H11.4641H11.4636ZM20.4308 20.6893L9.23676 2.44403L10.1218 0.918009C10.2842 0.638395 10.5174 0.406255 10.7982 0.244871C11.0789 0.0834875 11.3973 -0.00146484 11.7214 -0.00146484C12.0455 -0.00146484 12.3638 0.0834875 12.6446 0.244871C12.9253 0.406255 13.1586 0.638395 13.3209 0.918009L23.1912 17.9246C23.3536 18.2046 23.4392 18.5223 23.4394 18.8458C23.4396 19.1693 23.3543 19.4872 23.1922 19.7674C23.0301 20.0476 22.7968 20.2803 22.5159 20.4422C22.2349 20.604 21.9161 20.6893 21.5916 20.6893H20.4308ZM1.85168 20.6893C1.52719 20.6893 1.20843 20.604 0.927464 20.4422C0.646498 20.2803 0.413225 20.0476 0.251103 19.7674C0.0889811 19.4872 0.00372459 19.1693 0.00390654 18.8458C0.00408849 18.5223 0.0897024 18.2046 0.25214 17.9246L2.84293 13.4615L7.07876 20.6893H1.85168Z" fill="url(#paint0_linear_12748_9001)"/>
<path d="M94.4899 6.62308H97.2557V8.58379C98.0907 7.68671 99.1757 7.05906 100.371 6.7815C101.567 6.50395 102.818 6.58917 103.965 7.02623C105.112 7.46328 106.101 8.23219 106.806 9.23413C107.511 10.2361 107.899 11.4253 107.921 12.6489C107.933 13.4554 107.785 14.2564 107.486 15.006C107.187 15.7557 106.743 16.4391 106.179 17.0174C105.615 17.5957 104.942 18.0573 104.198 18.376C103.455 18.6946 102.656 18.864 101.847 18.8744C100.983 18.9136 100.121 18.7576 99.326 18.4179C98.5309 18.0783 97.8232 17.5639 97.2557 16.9132L97.2394 23.1744L94.4731 24.0001L94.4899 6.62308ZM97.6554 12.7628C97.6554 13.7543 98.0505 14.7051 98.7538 15.4062C99.457 16.1073 100.411 16.5012 101.405 16.5012C102.4 16.5012 103.354 16.1073 104.057 15.4062C104.76 14.7051 105.155 13.7543 105.155 12.7628C105.155 11.7713 104.76 10.8205 104.057 10.1194C103.354 9.41829 102.4 9.02443 101.405 9.02443C100.411 9.02443 99.457 9.41829 98.7538 10.1194C98.0505 10.8205 97.6554 11.7713 97.6554 12.7628ZM124.441 19.0359V9.27714H122.836V6.82071H124.441L124.456 2.48241L127.235 1.65514L127.22 6.82071H130.001V9.27714H127.222V19.0348L124.441 19.0359ZM109.105 12.8276C109.105 11.6001 109.47 10.4002 110.154 9.37955C110.838 8.35895 111.811 7.56351 112.948 7.09381C114.086 6.62411 115.338 6.50124 116.545 6.74074C117.753 6.98025 118.862 7.57136 119.733 8.43935C120.604 9.30734 121.197 10.4132 121.437 11.6171C121.677 12.8211 121.554 14.069 121.083 15.2031C120.611 16.3372 119.814 17.3065 118.79 17.9886C117.766 18.6706 116.562 19.0347 115.331 19.0348C114.513 19.0361 113.703 18.8764 112.947 18.5649C112.191 18.2534 111.504 17.7963 110.925 17.2196C110.347 16.643 109.888 15.9582 109.576 15.2045C109.264 14.4508 109.103 13.6431 109.105 12.8276ZM111.798 12.8276C111.798 13.5241 112.005 14.205 112.393 14.7842C112.781 15.3633 113.333 15.8147 113.978 16.0813C114.624 16.3479 115.334 16.4177 116.02 16.2818C116.705 16.146 117.334 15.8106 117.828 15.3181C118.322 14.8256 118.659 14.1981 118.795 13.515C118.932 12.8319 118.862 12.1238 118.595 11.4802C118.327 10.8367 117.875 10.2866 117.294 9.89956C116.713 9.51251 116.03 9.30587 115.331 9.30576C114.395 9.30918 113.498 9.68129 112.836 10.341C112.175 11.0007 111.801 11.8945 111.797 12.8276H111.798ZM82.602 16.3916L84.384 14.7111C84.7555 15.3016 85.2753 15.7851 85.8919 16.1136C86.5085 16.4421 87.2006 16.6042 87.8995 16.5838C89.4161 16.5838 90.6928 15.5038 90.6928 14.1112C90.6928 12.7909 89.7054 11.7104 87.4661 10.8226C85.2025 9.91056 83.421 8.87863 83.421 6.09388C83.4177 3.57589 85.3677 1.65514 88.1134 1.65514C89.6516 1.6084 91.1496 2.14927 92.301 3.16712L90.714 5.03982C90.3646 4.71959 89.9548 4.47193 89.5084 4.31126C89.062 4.15059 88.588 4.08014 88.114 4.10401C86.6211 4.10401 85.8747 5.03982 85.8747 6.09604C85.8747 7.29645 86.5973 7.89692 88.3788 8.59297C90.4978 9.40944 93.1455 10.8977 93.1455 14.1139C93.1455 17.2588 90.8342 19.0348 87.9926 19.0348C85.151 19.0348 83.4177 17.6422 82.5993 16.3937L82.602 16.3916ZM68.2835 13.008C68.2715 12.2014 68.4192 11.4004 68.718 10.6508C69.0169 9.90117 69.4611 9.21767 70.0253 8.63941C70.5894 8.06115 71.2624 7.59949 72.0057 7.28083C72.7491 6.96218 73.5482 6.79279 74.3573 6.78237C75.2213 6.7432 76.0831 6.89926 76.8781 7.23889C77.6732 7.57851 78.3809 8.09291 78.9484 8.74363L78.9647 2.48241L81.7315 1.65514L81.7147 19.0337H78.9484V17.073C78.1134 17.9701 77.0284 18.5978 75.8328 18.8753C74.6372 19.1529 73.3857 19.0676 72.2391 18.6306C71.0924 18.1935 70.1031 17.4246 69.3983 16.4227C68.6934 15.4207 68.3052 14.2316 68.2835 13.008ZM71.0493 12.894C71.0493 13.8855 71.4444 14.8364 72.1476 15.5374C72.8509 16.2385 73.8047 16.6324 74.7993 16.6324C75.7938 16.6324 76.7476 16.2385 77.4509 15.5374C78.1541 14.8364 78.5492 13.8855 78.5492 12.894C78.5492 11.9025 78.1541 10.9517 77.4509 10.2506C76.7476 9.54951 75.7938 9.15565 74.7993 9.15565C73.8047 9.15565 72.8509 9.54951 72.1476 10.2506C71.4444 10.9517 71.0493 11.9025 71.0493 12.894ZM55.0344 12.8276C55.0288 11.1897 55.6752 9.61647 56.8319 8.45324C57.9886 7.29 59.561 6.63179 61.204 6.62308C64.7373 6.62308 67.3725 9.13513 67.3725 13.0031H57.8743C57.8743 14.9374 59.0037 16.4963 61.3491 16.4963C61.8879 16.4863 62.4181 16.3598 62.9031 16.1256C63.3881 15.8914 63.8163 15.5551 64.1582 15.1399L66.1564 16.5541C65.6078 17.3505 64.8662 17.9958 64.0005 18.4301C63.1347 18.8643 62.173 19.0735 61.2045 19.0381C60.3837 19.058 59.5675 18.9105 58.806 18.6046C58.0444 18.2988 57.3535 17.8411 56.7758 17.2595C56.198 16.678 55.7455 15.9849 55.4461 15.2228C55.1466 14.4607 55.0065 13.6456 55.0344 12.8276ZM58.104 11.2395H64.3608C64.1485 10.575 63.7265 9.99666 63.1576 9.59085C62.5886 9.18504 61.9034 8.97347 61.204 8.98771C60.5122 8.97652 59.8357 9.19023 59.2767 9.59651C58.7176 10.0028 58.3066 10.5795 58.1056 11.2395H58.104ZM41.7885 12.8276C41.7828 11.19 42.4291 9.61699 43.5854 8.4538C44.7418 7.29062 46.3137 6.63222 47.9564 6.62308C51.4897 6.62308 54.1249 9.13513 54.1249 13.0031H44.6268C44.6268 14.9374 45.7562 16.4963 48.1016 16.4963C48.6404 16.4863 49.1706 16.3598 49.6556 16.1256C50.1405 15.8914 50.5688 15.5551 50.9107 15.1399L52.9089 16.5541C52.3602 17.3505 51.6186 17.9958 50.7529 18.4301C49.8872 18.8643 48.9254 19.0735 47.957 19.0381C47.1363 19.0577 46.3203 18.9101 45.5589 18.6041C44.7975 18.2982 44.1069 17.8404 43.5293 17.2589C42.9517 16.6774 42.4994 15.9844 42.2 15.2224C41.9007 14.4604 41.7606 13.6455 41.7885 12.8276ZM44.8581 11.2395H51.1133C50.901 10.575 50.4789 9.99666 49.91 9.59085C49.3411 9.18504 48.6558 8.97347 47.9564 8.98771C47.2647 8.97652 46.5881 9.19023 46.0291 9.59651C45.4701 10.0028 45.059 10.5795 44.8581 11.2395ZM31.7969 19.0348V1.65514H41.5685L40.7387 4.5522H34.7029V8.54815H41.5685L40.7382 11.4447H34.7029V19.0348H31.7969Z" fill="white"/>
</g>
<defs>
<linearGradient id="paint0_linear_12748_9001" x1="20.8849" y1="15.4752" x2="3.49388" y2="2.7352" gradientUnits="userSpaceOnUse">
<stop stop-color="#2CA4FC"/>
<stop offset="1" stop-color="#2684FC"/>
</linearGradient>
<clipPath id="clip0_12748_9001">
<rect width="130" height="24" fill="white"/>
</clipPath>
</defs>
</svg>
