<svg width="14" height="15" viewBox="0 0 14 15" fill="none" xmlns="http://www.w3.org/2000/svg">
<path d="M1.75 0.75C2.21484 0.75 2.625 1.16016 2.625 1.625V2.0625L4.51172 1.59766C5.55078 1.35156 6.64453 1.46094 7.60156 1.95312C8.85938 2.58203 10.3633 2.58203 11.6211 1.95312L11.8945 1.81641C12.4414 1.54297 13.125 1.95312 13.125 2.58203V10.2109C13.125 10.5938 12.8789 10.9219 12.5508 11.0312L11.5938 11.3867C10.3359 11.8789 8.91406 11.7969 7.71094 11.1953C6.67188 10.6758 5.49609 10.5391 4.375 10.8125L2.625 11.25V13.875C2.625 14.3672 2.21484 14.75 1.75 14.75C1.25781 14.75 0.875 14.3672 0.875 13.875V11.6875V9.88281V2.5V1.625C0.875 1.16016 1.25781 0.75 1.75 0.75ZM2.625 5.89062L4.375 5.50781V7.28516L2.625 7.66797V9.44531L3.9375 9.11719C4.07422 9.08984 4.21094 9.0625 4.375 9.03516V7.28516L5.41406 7.06641C5.66016 7.01172 5.87891 6.98438 6.125 7.01172V5.26172C6.48047 5.26172 6.86328 5.31641 7.21875 5.42578L7.875 5.61719V7.44922L6.72656 7.09375C6.53516 7.03906 6.31641 7.01172 6.125 7.01172V8.95312C6.69922 9.00781 7.30078 9.14453 7.875 9.33594V7.44922L8.47656 7.61328C8.85938 7.72266 9.24219 7.80469 9.625 7.83203V6.05469C9.40625 6.05469 9.1875 6 8.96875 5.94531L7.875 5.61719V3.92188C7.51953 3.8125 7.16406 3.67578 6.80859 3.51172C6.58984 3.40234 6.34375 3.32031 6.125 3.26562V5.26172C5.76953 5.23438 5.41406 5.26172 5.05859 5.34375L4.375 5.50781V3.42969L2.625 3.86719V5.89062ZM9.625 9.9375C10.0625 9.99219 10.5273 9.91016 10.9922 9.74609L11.375 9.60938V7.64062L11.1562 7.69531C10.6367 7.80469 10.1172 7.85938 9.625 7.83203V9.9375ZM11.375 5.86328V3.92188C10.8008 4.08594 10.1992 4.16797 9.625 4.16797V6.05469C9.98047 6.10938 10.3906 6.08203 10.7461 6L11.375 5.86328Z" fill="#4E555C"/>
</svg>
