<svg width="72" height="72" viewBox="0 0 72 72" fill="none" xmlns="http://www.w3.org/2000/svg">
<path d="M69.0627 28.8125V37.61H57.5627C57.1674 37.6203 56.7744 37.547 56.4096 37.3952C56.0444 37.2434 55.7155 37.0163 55.4441 36.7288C55.173 36.441 54.9655 36.0995 54.8349 35.7263C54.7047 35.3531 54.6544 34.9564 54.6877 34.5625V14.4375C61.0127 14.4375 69.0627 17.3125 69.0627 28.8125Z" fill="#FBDB4C"/>
<path opacity="0.5" d="M54.6875 30.8248L66.2364 19.276C64.802 17.6495 63.0175 16.3691 61.0174 15.5311C59.017 14.693 56.853 14.3191 54.6875 14.4374V30.8248Z" fill="white"/>
<path d="M57.804 14.679L54.0205 10.8955C50.7663 7.64106 46.3523 5.81264 41.75 5.8125L43.1875 14.4375" fill="#EC354D"/>
<path d="M69.0625 37.6043V48.9375H43.1875V14.4375H54.6875V34.5625C54.6542 34.9564 54.7045 35.3531 54.8347 35.7263C54.9652 36.0995 55.1728 36.441 55.4439 36.7288C55.7153 37.0163 56.0442 37.2434 56.4093 37.3952C56.7742 37.547 57.1672 37.6203 57.5625 37.61L69.0625 37.6043Z" fill="white"/>
<path d="M2.9375 5.8125H34.5625C35.325 5.8125 36.0564 6.11541 36.5954 6.65456C37.1345 7.19374 37.4375 7.92499 37.4375 8.6875V48.9375H2.9375V5.8125Z" fill="#005F9F"/>
<path opacity="0.25" d="M34.5625 5.8125H2.9375V15.875H34.5625C35.325 15.875 36.0564 16.1779 36.5954 16.7171C37.1345 17.2562 37.4375 17.9875 37.4375 18.75V8.6875C37.4375 7.92499 37.1345 7.19374 36.5954 6.65456C36.0564 6.11541 35.325 5.8125 34.5625 5.8125Z" fill="white"/>
<path opacity="0.1" d="M37.4375 48.9375H2.9375V57.5625H37.4375V48.9375Z" fill="#002F4F"/>
<path opacity="0.1" d="M69.0625 48.9375V54.6875C69.0625 55.45 68.7595 56.1814 68.2204 56.7204C67.6814 57.2595 66.9499 57.5625 66.1875 57.5625H43.1875V48.9375H69.0625Z" fill="#002F4F"/>
<path d="M57.804 14.679L54.0205 10.8955C50.7663 7.64106 46.3523 5.81264 41.75 5.8125L43.1875 14.4375" stroke="#002F4F" stroke-width="3" stroke-linecap="round" stroke-linejoin="round"/>
<path d="M69.0625 48.9375V54.6875C69.0625 55.4499 68.7595 56.1814 68.2204 56.7204C67.6814 57.2595 66.9499 57.5625 66.1875 57.5625" stroke="#002F4F" stroke-width="3" stroke-linecap="round" stroke-linejoin="round"/>
<path d="M37.4375 57.5625V8.6875C37.4375 7.92499 37.1345 7.19374 36.5954 6.65456C36.0564 6.11541 35.3249 5.8125 34.5625 5.8125H2.9375" stroke="#002F4F" stroke-width="3" stroke-linecap="round" stroke-linejoin="round"/>
<path d="M25.9375 40.3125V14.4375" stroke="#002F4F" stroke-width="3" stroke-linecap="round" stroke-linejoin="round"/>
<path d="M14.4375 40.3125V14.4375" stroke="#002F4F" stroke-width="3" stroke-linecap="round" stroke-linejoin="round"/>
<path d="M37.4375 48.9375H2.9375" stroke="#002F4F" stroke-width="3" stroke-linecap="round" stroke-linejoin="round"/>
<path d="M69.0625 37.6043V48.9375H43.1875V14.4375H54.6875V34.5625C54.6542 34.9564 54.7045 35.3531 54.8347 35.7263C54.9652 36.0995 55.1728 36.441 55.4439 36.7288C55.7153 37.0163 56.0442 37.2434 56.4093 37.3952C56.7742 37.547 57.1672 37.6204 57.5625 37.61L69.0625 37.6043Z" stroke="#002F4F" stroke-width="3" stroke-linecap="round" stroke-linejoin="round"/>
<path d="M43.1934 57.5566V48.9316" stroke="#002F4F" stroke-width="3" stroke-linecap="round" stroke-linejoin="round"/>
<path d="M69.0627 28.8125V37.61H57.5627C57.1674 37.6204 56.7744 37.547 56.4096 37.3952C56.0444 37.2434 55.7155 37.0163 55.4441 36.7288C55.173 36.441 54.9655 36.0995 54.8349 35.7263C54.7047 35.3531 54.6544 34.9564 54.6877 34.5625V14.4375C61.0127 14.4375 69.0627 17.3125 69.0627 28.8125Z" stroke="#002F4F" stroke-width="3" stroke-linecap="round" stroke-linejoin="round"/>
<path d="M8.6875 66.1875C9.82474 66.1875 10.9364 65.8502 11.882 65.2183C12.8276 64.5867 13.5646 63.6885 13.9998 62.638C14.435 61.5872 14.5489 60.4311 14.327 59.3156C14.1052 58.2004 13.5575 57.1758 12.7534 56.3716C11.9492 55.5675 10.9247 55.0198 9.80927 54.7979C8.69388 54.5762 7.53776 54.69 6.48706 55.125C5.43639 55.5603 4.53836 56.2975 3.90655 57.243C3.27473 58.1886 2.9375 59.3001 2.9375 60.4375C2.9375 61.9624 3.5433 63.4249 4.62165 64.5033C5.69997 65.5817 7.16251 66.1875 8.6875 66.1875Z" fill="#D9EEF7" fill-opacity="0.6"/>
<path d="M28.8125 66.1875C29.9497 66.1875 31.0613 65.8502 32.0069 65.2183C32.9525 64.5867 33.6896 63.6885 34.1249 62.638C34.5599 61.5872 34.6738 60.4311 34.4521 59.3156C34.2301 58.2004 33.6825 57.1758 32.8783 56.3716C32.0742 55.5675 31.0495 55.0198 29.9343 54.7979C28.8189 54.5762 27.6628 54.69 26.6121 55.125C25.5614 55.5603 24.6634 56.2975 24.0315 57.243C23.3997 58.1886 23.0625 59.3001 23.0625 60.4375C23.0625 61.9624 23.6683 63.4249 24.7466 64.5033C25.825 65.5817 27.2875 66.1875 28.8125 66.1875Z" fill="white"/>
<path d="M54.6875 66.1875C55.8249 66.1875 56.9363 65.8502 57.8819 65.2183C58.8275 64.5867 59.5646 63.6885 59.9999 62.638C60.4349 61.5872 60.5488 60.4311 60.3271 59.3156C60.1051 58.2004 59.5575 57.1758 58.7533 56.3716C57.9492 55.5675 56.9245 55.0198 55.8093 54.7979C54.6938 54.5762 53.5378 54.69 52.487 55.125C51.4365 55.5603 50.5383 56.2975 49.9067 57.243C49.2747 58.1886 48.9375 59.3001 48.9375 60.4375C48.9375 61.9624 49.5433 63.4249 50.6217 64.5033C51.7001 65.5817 53.1626 66.1875 54.6875 66.1875Z" fill="white"/>
<path d="M8.6875 66.1875C9.82474 66.1875 10.9364 65.8502 11.882 65.2183C12.8276 64.5867 13.5646 63.6885 13.9998 62.638C14.435 61.5872 14.5489 60.4311 14.327 59.3156C14.1052 58.2004 13.5575 57.1758 12.7534 56.3716C11.9492 55.5675 10.9247 55.0198 9.80927 54.7979C8.69388 54.5762 7.53776 54.69 6.48706 55.125C5.43639 55.5603 4.53836 56.2975 3.90655 57.243C3.27473 58.1886 2.9375 59.3001 2.9375 60.4375C2.9375 61.9624 3.5433 63.4249 4.62165 64.5033C5.69997 65.5817 7.16251 66.1875 8.6875 66.1875Z" fill="white" stroke="#002F4F" stroke-width="3" stroke-linecap="round" stroke-linejoin="round"/>
<path d="M28.8125 66.1875C29.9497 66.1875 31.0613 65.8502 32.0069 65.2183C32.9525 64.5867 33.6896 63.6885 34.1249 62.638C34.5599 61.5872 34.6738 60.4311 34.4521 59.3156C34.2301 58.2004 33.6825 57.1758 32.8783 56.3716C32.0742 55.5675 31.0495 55.0198 29.9343 54.7979C28.8189 54.5762 27.6628 54.69 26.6121 55.125C25.5614 55.5603 24.6634 56.2975 24.0315 57.243C23.3997 58.1886 23.0625 59.3001 23.0625 60.4375C23.0625 61.9624 23.6683 63.4249 24.7466 64.5033C25.825 65.5817 27.2875 66.1875 28.8125 66.1875Z" stroke="#002F4F" stroke-width="3" stroke-linecap="round" stroke-linejoin="round"/>
<path d="M54.6875 66.1875C55.8248 66.1875 56.9363 65.8502 57.8819 65.2183C58.8275 64.5867 59.5646 63.6885 59.9999 62.638C60.4349 61.5872 60.5488 60.4311 60.3271 59.3156C60.1051 58.2004 59.5575 57.1758 58.7533 56.3716C57.9492 55.5675 56.9245 55.0198 55.8093 54.7979C54.6938 54.5762 53.5378 54.69 52.487 55.125C51.4365 55.5603 50.5383 56.2975 49.9067 57.243C49.2747 58.1886 48.9375 59.3001 48.9375 60.4375C48.9375 61.9624 49.5433 63.4249 50.6217 64.5033C51.7001 65.5817 53.1626 66.1875 54.6875 66.1875Z" stroke="#002F4F" stroke-width="3" stroke-linecap="round" stroke-linejoin="round"/>
</svg>
