<svg width="278" height="299" viewBox="0 0 278 299" fill="none" xmlns="http://www.w3.org/2000/svg">
<path d="M83.2769 176.474L9.21495 104.945C2.28772 98.0181 2.28772 86.7762 9.21495 79.8094L83.1582 10.1017C90.0854 3.17444 101.327 3.17444 108.294 10.1017L182.475 79.849C189.402 86.7762 189.402 98.0181 182.475 104.985L108.413 176.513C101.486 183.441 90.2437 183.441 83.2769 176.513" fill="white"/>
<path fill-rule="evenodd" clip-rule="evenodd" d="M105.459 12.951C100.055 7.57756 91.3512 7.58916 85.9974 12.9429C85.9695 12.9708 85.9412 12.9983 85.9125 13.0254L12.0195 82.6857C6.69664 88.0852 6.7147 96.7401 12.0313 102.081L86.0663 173.584C86.183 173.697 86.2922 173.816 86.3934 173.94C91.8144 179.036 100.31 178.933 105.57 173.673C105.587 173.656 105.603 173.64 105.62 173.624L179.65 102.125C184.984 96.7332 184.977 88.0793 179.673 82.7311L105.54 13.029C105.513 13.0034 105.486 12.9774 105.459 12.951ZM111.083 7.21129C102.565 -1.21371 88.8496 -1.22594 80.3593 7.21706L6.45717 76.8861C6.42567 76.9158 6.39465 76.946 6.36412 76.9767C-2.11692 85.5062 -2.12852 99.2858 6.3722 107.787C6.38868 107.803 6.4053 107.819 6.42206 107.836L80.1602 179.051C80.2483 179.159 80.3424 179.263 80.4423 179.363C88.9631 187.835 102.723 187.855 111.226 179.381L185.264 107.875C185.284 107.856 185.303 107.837 185.322 107.818C193.803 99.2885 193.815 85.5089 185.314 77.0081C185.285 76.979 185.255 76.9503 185.225 76.922L111.083 7.21129Z" fill="#005F9F"/>
<path d="M159.793 132.059H221.109C221.109 132.059 224.434 131.782 227.838 134.632C231.242 137.482 271.46 175.602 271.46 175.602C271.46 175.602 274.033 177.937 274.033 181.698V243.568C274.033 243.568 274.429 247.566 270.153 251.485C265.878 255.403 227.878 291.979 227.878 291.979C227.878 291.979 225.225 294.433 221.148 294.552C217.071 294.631 160.941 294.552 160.941 294.552C160.941 294.552 157.26 295.225 153.341 291.425C149.461 287.625 109.442 250.178 109.442 250.178C109.442 250.178 107.463 248.278 107.463 243.845V184.508C107.463 184.508 106.156 179.679 111.619 174.612C114.865 171.643 153.459 134.316 153.459 134.316C153.459 134.316 155.676 131.703 159.832 132.059" fill="white"/>
<path fill-rule="evenodd" clip-rule="evenodd" d="M150.616 131.558C150.648 131.524 150.684 131.486 150.723 131.446C150.859 131.306 151.038 131.132 151.259 130.938C151.701 130.55 152.326 130.069 153.135 129.61C154.74 128.7 157.061 127.891 159.986 128.101H221.002C221.054 128.099 221.112 128.097 221.176 128.095C221.362 128.092 221.599 128.093 221.882 128.107C222.446 128.136 223.198 128.217 224.077 128.418C225.846 128.822 228.124 129.71 230.379 131.597C232.199 133.122 243.244 143.498 253.641 153.306C258.883 158.251 264.018 163.107 267.843 166.726C269.755 168.536 271.34 170.036 272.447 171.084L274.153 172.701L274.164 172.712C274.165 172.713 274.166 172.713 274.166 172.714C274.183 172.73 274.203 172.748 274.224 172.768C274.269 172.811 274.323 172.864 274.386 172.927C274.51 173.054 274.669 173.222 274.85 173.43C275.209 173.844 275.669 174.43 276.125 175.177C277.031 176.662 277.991 178.896 277.991 181.698V243.444C277.994 243.509 277.997 243.582 277.998 243.664C278.003 243.89 278 244.179 277.977 244.523C277.93 245.209 277.802 246.116 277.495 247.168C276.872 249.3 275.536 251.92 272.828 254.403C270.734 256.322 260.216 266.396 250.153 276.057C245.137 280.873 240.254 285.567 236.625 289.056C234.811 290.801 233.31 292.245 232.263 293.253L230.624 294.83L230.623 294.831C230.622 294.831 230.622 294.831 227.877 291.979C230.566 294.885 230.565 294.886 230.563 294.887L230.561 294.889L230.557 294.893L230.547 294.902L230.523 294.923C230.506 294.939 230.487 294.956 230.464 294.976C230.419 295.016 230.363 295.065 230.295 295.121C230.161 295.234 229.981 295.378 229.759 295.543C229.316 295.871 228.694 296.291 227.911 296.71C226.356 297.543 224.072 298.427 221.263 298.509L221.225 298.51C219.133 298.551 204.015 298.55 189.512 298.54C182.24 298.535 175.096 298.528 169.77 298.522C167.107 298.519 164.898 298.516 163.355 298.514L161.183 298.511C161.18 298.511 161.177 298.512 161.174 298.512C160.953 298.534 160.673 298.553 160.34 298.556C159.675 298.562 158.795 298.505 157.768 298.282C155.68 297.827 153.105 296.711 150.584 294.267L150.57 294.253C148.671 292.393 137.746 282.127 127.228 272.264C121.984 267.347 116.861 262.548 113.049 258.978C111.143 257.193 109.565 255.716 108.463 254.685L106.737 253.069C106.737 253.069 106.737 253.069 109.441 250.178C106.7 253.034 106.698 253.032 106.697 253.031L106.693 253.028L106.687 253.021L106.672 253.007L106.642 252.977C106.621 252.956 106.598 252.933 106.573 252.907C106.523 252.855 106.466 252.795 106.404 252.725C106.278 252.584 106.129 252.406 105.965 252.187C105.638 251.751 105.252 251.155 104.884 250.389C104.14 248.842 103.504 246.674 103.504 243.845V184.893C103.461 184.638 103.42 184.322 103.395 183.95C103.337 183.121 103.354 182.01 103.605 180.708C104.12 178.048 105.575 174.819 108.927 171.71L108.947 171.691C110.518 170.254 120.916 160.241 131.007 150.502C136.033 145.652 140.958 140.894 144.627 137.348C146.461 135.575 147.981 134.106 149.043 133.08L150.616 131.558ZM111.313 183.592C111.384 183.892 111.42 184.2 111.42 184.508V243.845C111.42 245.45 111.774 246.448 112.019 246.959C112.134 247.197 112.234 247.348 112.284 247.418L113.873 248.905C114.976 249.936 116.554 251.414 118.461 253.199C122.273 256.77 127.398 261.57 132.644 266.489C143.092 276.287 154.102 286.631 156.103 288.59C157.498 289.941 158.72 290.387 159.451 290.546C159.835 290.629 160.12 290.641 160.268 290.64C160.311 290.639 160.342 290.638 160.359 290.637C160.553 290.608 160.749 290.594 160.946 290.594L160.94 294.552C160.946 290.594 160.945 290.594 160.946 290.594H160.948L163.365 290.597C164.908 290.599 167.116 290.602 169.779 290.605C175.104 290.611 182.248 290.619 189.518 290.624C204.051 290.633 218.985 290.633 221.051 290.595C222.311 290.555 223.385 290.154 224.172 289.732C224.561 289.523 224.857 289.322 225.039 289.187C225.091 289.148 225.133 289.116 225.164 289.091C225.179 289.078 225.192 289.068 225.203 289.059L226.774 287.548C227.821 286.54 229.323 285.095 231.138 283.35C234.768 279.859 239.652 275.164 244.67 270.346C254.677 260.739 265.297 250.567 267.478 248.567C269.045 247.13 269.649 245.792 269.896 244.946C270.025 244.508 270.065 244.171 270.078 243.985C270.083 243.914 270.083 243.867 270.083 243.844C270.077 243.752 270.074 243.66 270.074 243.568V181.698C270.074 180.74 269.747 179.925 269.367 179.302C269.18 178.995 268.996 178.763 268.873 178.621C268.812 178.552 268.77 178.508 268.754 178.492L268.782 178.518L268.79 178.525C268.777 178.513 268.765 178.502 268.753 178.491C268.746 178.484 268.745 178.483 268.752 178.49L268.754 178.492C268.754 178.491 268.753 178.491 268.753 178.491C268.747 178.485 268.742 178.48 268.736 178.475L271.459 175.602C268.799 178.533 268.798 178.532 268.797 178.531C268.794 178.529 268.792 178.527 268.79 178.525L268.794 178.529L268.797 178.531C268.797 178.532 268.798 178.532 268.799 178.533L271.459 175.602C268.736 178.475 268.736 178.475 268.736 178.475L268.734 178.473L268.729 178.468L267.002 176.832C265.896 175.785 264.313 174.285 262.401 172.476C258.579 168.859 253.447 164.006 248.209 159.065C237.646 149.101 226.88 138.993 225.296 137.667C224.147 136.705 223.06 136.306 222.315 136.136C221.938 136.05 221.646 136.022 221.48 136.014C221.413 136.01 221.368 136.01 221.349 136.01C221.269 136.015 221.188 136.018 221.108 136.018H159.792C159.64 136.018 159.491 136.009 159.343 135.993C158.279 135.932 157.525 136.222 157.039 136.498C156.774 136.648 156.585 136.797 156.481 136.888C156.446 136.919 156.422 136.942 156.41 136.954C156.346 137.025 156.28 137.094 156.211 137.161L153.459 134.316C156.211 137.161 156.211 137.161 156.211 137.161L154.546 138.771C153.484 139.798 151.963 141.268 150.129 143.041C146.459 146.587 141.533 151.347 136.505 156.199C126.509 165.845 116.011 175.957 114.301 177.523C112.198 179.477 111.575 181.193 111.378 182.213C111.274 182.752 111.276 183.165 111.292 183.399C111.299 183.498 111.308 183.564 111.313 183.592ZM160.243 290.656L160.246 290.655C160.245 290.655 160.244 290.656 160.243 290.656ZM109.441 250.178L106.7 253.034C106.712 253.046 106.725 253.058 106.737 253.069L109.441 250.178ZM227.877 291.979L230.566 294.885C230.572 294.878 230.579 294.872 230.586 294.866C230.598 294.854 230.611 294.842 230.623 294.831L227.877 291.979Z" fill="#005F9F"/>
<path d="M163.789 148.526H218.85L258.316 185.656V240.916L219.048 278.244H162.958L123.492 240.916V185.656L163.789 148.526Z" fill="#EC354D"/>
<path fill-rule="evenodd" clip-rule="evenodd" d="M162.663 147.304C162.97 147.021 163.372 146.864 163.789 146.864H218.851C219.274 146.864 219.682 147.026 219.99 147.316L259.455 184.446C259.789 184.76 259.979 185.198 259.979 185.657V240.916C259.979 241.372 259.792 241.807 259.462 242.121L220.194 279.449C219.885 279.743 219.475 279.907 219.049 279.907H162.958C162.533 279.907 162.124 279.744 161.816 279.452L122.35 242.124C122.018 241.81 121.83 241.373 121.83 240.916V185.657C121.83 185.192 122.024 184.749 122.366 184.434L162.663 147.304ZM164.438 150.189L125.155 186.386V240.2L163.62 276.582H218.385L256.654 240.203V186.375L218.192 150.189H164.438Z" fill="#005F9F"/>
<path d="M19.8223 93.1897L95.7051 21.6216L171.311 93.1897L95.7051 164.758L19.8223 93.1897Z" fill="#FBDB4C"/>
<path fill-rule="evenodd" clip-rule="evenodd" d="M94.5629 20.412C95.2042 19.8072 96.2063 19.8081 96.8465 20.4141L172.452 91.9823C172.784 92.2963 172.972 92.7329 172.972 93.1897C172.972 93.6464 172.784 94.0831 172.452 94.397L96.8465 165.965C96.2063 166.571 95.2042 166.572 94.5629 165.967L18.68 94.3991C18.347 94.085 18.1582 93.6475 18.1582 93.1897C18.1582 92.7319 18.347 92.2943 18.68 91.9802L94.5629 20.412ZM22.2438 93.1897L95.7015 162.471L168.891 93.1897L95.7015 23.9088L22.2438 93.1897Z" fill="#005F9F"/>
<path d="M62.8904 60.1367H80.9803L95.7056 94.0603L110.431 60.1367H128.521L104.335 115.752V147.143H87.0763V115.911L62.8904 60.1367Z" fill="white"/>
<path fill-rule="evenodd" clip-rule="evenodd" d="M60.7793 58.7515H81.8891L95.7054 90.5811L109.522 58.7515H130.634L105.72 116.041V148.528H85.6907V116.198L60.7793 58.7515ZM65.0011 61.5224L88.4615 115.624V145.757H102.949V115.464L126.407 61.5224H111.34L95.7054 97.54L80.0712 61.5224H65.0011Z" fill="#005F9F"/>
<path d="M166.044 170.219V256.473H210.101L221.739 246.022V180.669L210.695 170.219H166.044Z" fill="white"/>
<path fill-rule="evenodd" clip-rule="evenodd" d="M164.659 168.833H211.247L223.125 180.072V246.64L210.632 257.858H164.659V168.833ZM167.43 171.604V255.087H209.571L220.354 245.404V181.265L210.144 171.604H167.43Z" fill="#005F9F"/>
<path d="M202.304 188.23H184.174V238.977H202.304V188.23Z" fill="#EC354D"/>
<path fill-rule="evenodd" clip-rule="evenodd" d="M182.512 186.568H203.967V240.64H182.512V186.568ZM185.838 189.893V237.315H200.642V189.893H185.838Z" fill="#005F9F"/>
</svg>
