<svg width="20" height="20" viewBox="0 0 20 20" fill="none" xmlns="http://www.w3.org/2000/svg">
<g clip-path="url(#clip0_12786_11436)">
<path d="M10.6242 18.0515C11.3118 18.4943 12.1303 18.6884 12.9435 18.6015C13.7567 18.5146 14.5157 18.1521 15.0943 17.574L15.5983 17.07C15.8219 16.844 15.9473 16.5389 15.9473 16.2211C15.9473 15.9031 15.8219 15.5982 15.5983 15.3722L13.476 13.2631C13.2523 13.0404 12.9494 12.9153 12.6337 12.9153C12.318 12.9153 12.0152 13.0404 11.7914 13.2631C11.5655 13.4867 11.2604 13.6121 10.9425 13.6121C10.6247 13.6121 10.3196 13.4867 10.0936 13.2631L6.71122 9.88074C6.48765 9.65475 6.36227 9.34971 6.36227 9.03182C6.36227 8.71394 6.48765 8.40889 6.71122 8.18291C6.93397 7.95919 7.05903 7.65633 7.05903 7.34062C7.05903 7.02492 6.93397 6.72207 6.71122 6.49834L4.66856 4.37606C4.44254 4.1525 4.13746 4.0271 3.81965 4.0271C3.5017 4.0271 3.19663 4.1525 2.97074 4.37606L2.46669 4.8801C1.87829 5.45052 1.50331 6.20547 1.40436 7.01897C1.3054 7.83248 1.48832 8.65531 1.92286 9.35016C4.23575 12.784 7.19036 15.7387 10.6242 18.0515Z" stroke="#1CCCF3" stroke-width="1.43" stroke-linecap="round" stroke-linejoin="round"/>
<path d="M9.9998 1.37817C11.132 1.37817 12.2532 1.60118 13.2992 2.03447C14.3453 2.46776 15.2957 3.10284 16.0963 3.90344C16.8969 4.70405 17.532 5.6545 17.9653 6.70055C18.3986 7.74658 18.6216 8.86773 18.6216 9.99996" stroke="#1CCCF3" stroke-width="1.43" stroke-linecap="round" stroke-linejoin="round"/>
<path d="M9.99995 4.69434C11.4071 4.69434 12.7566 5.25333 13.7517 6.24834C14.7467 7.24336 15.3057 8.59288 15.3057 10.0001" stroke="#1CCCF3" stroke-width="1.43" stroke-linecap="round" stroke-linejoin="round"/>
</g>
<defs>
<clipPath id="clip0_12786_11436">
<rect width="20" height="20" fill="white" transform="matrix(-1 0 0 1 20 0)"/>
</clipPath>
</defs>
</svg>
