<svg width="28" height="29" viewBox="0 0 28 29" fill="none" xmlns="http://www.w3.org/2000/svg">
<path d="M14.8743 25.6064C15.837 26.2264 16.9829 26.4981 18.1215 26.3764C19.2601 26.2548 20.3228 25.7472 21.1328 24.9379L21.8386 24.2322C22.1516 23.9157 22.3271 23.4886 22.3271 23.0436C22.3271 22.5984 22.1516 22.1715 21.8386 21.855L18.8671 18.9021C18.5539 18.5903 18.1299 18.4152 17.6878 18.4152C17.2458 18.4152 16.8218 18.5903 16.5086 18.9021C16.1922 19.2152 15.765 19.3907 15.32 19.3907C14.8749 19.3907 14.4478 19.2152 14.1314 18.9021L9.3957 14.1664C9.08268 13.85 8.90712 13.4229 8.90712 12.9779C8.90712 12.5328 9.08268 12.1057 9.3957 11.7893C9.70757 11.4761 9.88266 11.052 9.88266 10.61C9.88266 10.168 9.70757 9.74395 9.3957 9.43071L6.53575 6.45928C6.21929 6.14628 5.79215 5.9707 5.34718 5.9707C4.90202 5.9707 4.47488 6.14628 4.15861 6.45928L3.45289 7.16499C2.62907 7.96364 2.10405 9.02065 1.96551 10.1596C1.82697 11.2986 2.08307 12.4507 2.69147 13.4236C5.92977 18.2313 10.0665 22.3681 14.8743 25.6064Z" stroke="#EC354D" stroke-width="2" stroke-linecap="round" stroke-linejoin="round"/>
<path d="M13.9999 2.26221C15.5851 2.26221 17.1548 2.57444 18.6194 3.18109C20.084 3.78774 21.4147 4.67692 22.5356 5.79785C23.6566 6.91879 24.5458 8.24952 25.1524 9.7141C25.7591 11.1787 26.0713 12.7484 26.0713 14.3336" stroke="#EC354D" stroke-width="2" stroke-linecap="round" stroke-linejoin="round"/>
<path d="M14.0001 6.90527C15.9703 6.90527 17.8598 7.68793 19.2529 9.08105C20.6461 10.4742 21.4287 12.3637 21.4287 14.3338" stroke="#EC354D" stroke-width="2" stroke-linecap="round" stroke-linejoin="round"/>
</svg>
