<svg width="48" height="48" viewBox="0 0 48 48" fill="none" xmlns="http://www.w3.org/2000/svg">
<path d="M14.9107 42.5956C17.6546 43.9394 20.7397 44.6939 24.001 44.6939C35.4301 44.6939 44.6949 35.4291 44.6949 24C44.6949 12.5711 35.4301 3.30615 24.001 3.30615C12.5721 3.30615 3.30713 12.5711 3.30713 24C3.30713 28.2426 4.58385 32.187 6.77402 35.4699M14.9107 42.5956L3.30713 44.6939L6.77402 35.4699M14.9107 42.5956L14.9275 42.5927L14.9107 42.5956ZM6.77402 35.4699L6.77733 35.4613L6.77402 35.4699Z" fill="url(#paint0_linear_12734_1504)"/>
<path d="M31.9604 17.632C29.323 17.632 27.1849 19.7701 27.1849 22.4075V23.9994M27.1849 23.9994V27.183C27.1849 28.9413 28.6103 30.3667 30.3686 30.3667C32.1269 30.3667 33.5522 28.9413 33.5522 27.183C33.5522 25.4247 32.1269 23.9994 30.3686 23.9994H27.1849Z" stroke="white" stroke-width="3" stroke-linecap="round" stroke-linejoin="round"/>
<path d="M19.2251 17.632C16.5876 17.632 14.4495 19.7701 14.4495 22.4075V23.9994M14.4495 23.9994V27.183C14.4495 28.9413 15.8749 30.3667 17.6332 30.3667C19.3915 30.3667 20.8169 28.9413 20.8169 27.183C20.8169 25.4247 19.3915 23.9994 17.6332 23.9994H14.4495Z" stroke="white" stroke-width="3" stroke-linecap="round" stroke-linejoin="round"/>
<defs>
<linearGradient id="paint0_linear_12734_1504" x1="3.30713" y1="3.30615" x2="52.3587" y2="31.2331" gradientUnits="userSpaceOnUse">
<stop stop-color="#EC367C"/>
<stop offset="1" stop-color="#BA0A4A"/>
</linearGradient>
</defs>
</svg>
