<svg width="72" height="72" viewBox="0 0 72 72" fill="none" xmlns="http://www.w3.org/2000/svg">
<path d="M43.1875 34.5625H28.8125C27.2247 34.5625 25.9375 35.8496 25.9375 37.4375V66.1875C25.9375 67.7754 27.2247 69.0625 28.8125 69.0625H43.1875C44.7754 69.0625 46.0625 67.7754 46.0625 66.1875V37.4375C46.0625 35.8496 44.7754 34.5625 43.1875 34.5625Z" fill="#EC354D" stroke="#002F4F" stroke-width="3" stroke-linecap="round" stroke-linejoin="round"/>
<path d="M17.3125 51.8125H5.8125C4.22468 51.8125 2.9375 53.0996 2.9375 54.6875V66.1875C2.9375 67.7754 4.22468 69.0625 5.8125 69.0625H17.3125C18.9003 69.0625 20.1875 67.7754 20.1875 66.1875V54.6875C20.1875 53.0996 18.9003 51.8125 17.3125 51.8125Z" fill="#005F9F" stroke="#002F4F" stroke-width="3" stroke-linecap="round" stroke-linejoin="round"/>
<path d="M66.1875 60.4375H54.6875C53.0996 60.4375 51.8125 61.7246 51.8125 63.3125V66.1875C51.8125 67.7754 53.0996 69.0625 54.6875 69.0625H66.1875C67.7754 69.0625 69.0625 67.7754 69.0625 66.1875V63.3125C69.0625 61.7246 67.7754 60.4375 66.1875 60.4375Z" fill="#005F9F" stroke="#002F4F" stroke-width="3" stroke-linecap="round" stroke-linejoin="round"/>
<path d="M40.3125 11.5624H45.8354C46.139 11.5626 46.4351 11.6589 46.6806 11.8376C46.9261 12.0163 47.1087 12.2682 47.2024 12.5572C47.2959 12.8461 47.2956 13.1573 47.2013 13.446C47.107 13.7347 46.9238 13.9862 46.6777 14.1643L42.0777 17.5022L44.9125 24.0169C45.0301 24.2919 45.0588 24.5966 44.995 24.8887C44.9312 25.1807 44.7779 25.4457 44.5566 25.6465C44.3349 25.8474 44.0566 25.9743 43.7596 26.0094C43.4626 26.0445 43.1622 25.9862 42.9 25.8426L36 21.9757L29.1259 25.8426C28.8637 25.9862 28.5632 26.0445 28.2663 26.0094C27.9694 25.9743 27.6908 25.8474 27.4694 25.6465C27.248 25.4457 27.0947 25.1807 27.0308 24.8887C26.967 24.5966 26.9959 24.2919 27.1134 24.0169L29.9481 17.5022L25.3481 14.1643C25.1034 13.9872 24.9208 13.7376 24.826 13.4508C24.7312 13.164 24.7292 12.8546 24.8202 12.5666C24.9112 12.2786 25.0907 12.0266 25.333 11.8463C25.5754 11.6661 25.8684 11.5667 26.1704 11.5624H31.6875L34.6602 3.85743C34.7646 3.58656 34.9489 3.35367 35.1881 3.18942C35.4276 3.02517 35.7111 2.93726 36.0014 2.93726C36.2918 2.93726 36.5753 3.02517 36.8148 3.18942C37.054 3.35367 37.2383 3.58656 37.3426 3.85743L40.3125 11.5624Z" fill="#FFEF5E" stroke="#002F4F" stroke-width="3" stroke-linecap="round" stroke-linejoin="round"/>
<path d="M11.5625 46.0625C14.7381 46.0625 17.3125 43.4882 17.3125 40.3125C17.3125 37.1368 14.7381 34.5625 11.5625 34.5625C8.38686 34.5625 5.8125 37.1368 5.8125 40.3125C5.8125 43.4882 8.38686 46.0625 11.5625 46.0625Z" fill="#EEEEEE" stroke="#002F4F" stroke-width="3" stroke-linecap="round" stroke-linejoin="round"/>
<path d="M60.4375 54.6875C63.6132 54.6875 66.1875 52.1132 66.1875 48.9375C66.1875 45.7618 63.6132 43.1875 60.4375 43.1875C57.2618 43.1875 54.6875 45.7618 54.6875 48.9375C54.6875 52.1132 57.2618 54.6875 60.4375 54.6875Z" fill="#E3E3E3" stroke="#002F4F" stroke-width="3" stroke-linecap="round" stroke-linejoin="round"/>
</svg>
