<svg width="16" height="13" viewBox="0 0 16 13" fill="none" xmlns="http://www.w3.org/2000/svg">
<path d="M7.125 0.625V2.375C7.125 2.86719 7.50781 3.25 8 3.25C8.46484 3.25 8.875 2.86719 8.875 2.375V0.625H10.8984C11.6367 0.625 12.3203 1.11719 12.5664 1.80078L15.7656 10.9062C15.8203 11.043 15.875 11.2344 15.875 11.3984C15.875 12.2188 15.1914 12.875 14.3711 12.875H8.875V11.125C8.875 10.6602 8.46484 10.25 8 10.25C7.50781 10.25 7.125 10.6602 7.125 11.125V12.875H1.60156C0.78125 12.875 0.125 12.2188 0.125 11.3984C0.125 11.2344 0.152344 11.043 0.207031 10.9062L3.40625 1.80078C3.65234 1.11719 4.33594 0.625 5.07422 0.625H7.125ZM8.875 5.875C8.875 5.41016 8.46484 5 8 5C7.50781 5 7.125 5.41016 7.125 5.875V7.625C7.125 8.11719 7.50781 8.5 8 8.5C8.46484 8.5 8.875 8.11719 8.875 7.625V5.875Z" fill="#4E555C"/>
</svg>
