<svg width="20" height="20" viewBox="0 0 20 20" fill="none" xmlns="http://www.w3.org/2000/svg">
<g clip-path="url(#clip0_12786_11457)">
<path d="M16.8734 10.6631H6.02321L4.69678 4.03101H17.961C18.0581 4.03136 18.1538 4.05298 18.2416 4.09437C18.3292 4.13574 18.4068 4.19587 18.4688 4.27049C18.5309 4.3451 18.5757 4.43242 18.6002 4.52625C18.6248 4.6201 18.6285 4.71818 18.611 4.8136L17.5233 10.1193C17.498 10.2727 17.4184 10.4119 17.2991 10.5117C17.1799 10.6115 17.0288 10.6652 16.8734 10.6631Z" stroke="#EC354D" stroke-width="1.43" stroke-linecap="round" stroke-linejoin="round"/>
<path d="M4.69693 4.03103L4.13983 1.90875C4.10925 1.75894 4.02785 1.62431 3.90941 1.52762C3.79098 1.43094 3.64277 1.37814 3.48988 1.37817H1.38086" stroke="#EC354D" stroke-width="1.43" stroke-linecap="round" stroke-linejoin="round"/>
<path d="M6.02344 10.6631L6.58054 13.4486C6.61112 13.5984 6.69251 13.733 6.81095 13.8297C6.92939 13.9264 7.0776 13.9792 7.23049 13.9792H15.3085" stroke="#EC354D" stroke-width="1.43" stroke-linecap="round" stroke-linejoin="round"/>
<path d="M14.6451 18.6218C14.2788 18.6218 13.9819 18.3249 13.9819 17.9586C13.9819 17.5924 14.2788 17.2954 14.6451 17.2954C15.0114 17.2954 15.3084 17.5924 15.3084 17.9586C15.3084 18.3249 15.0114 18.6218 14.6451 18.6218Z" stroke="#EC354D" stroke-width="1.43" stroke-linecap="round" stroke-linejoin="round"/>
<path d="M8.01282 18.6218C7.64654 18.6218 7.34961 18.3249 7.34961 17.9586C7.34961 17.5924 7.64654 17.2954 8.01282 17.2954C8.37912 17.2954 8.67604 17.5924 8.67604 17.9586C8.67604 18.3249 8.37912 18.6218 8.01282 18.6218Z" stroke="#EC354D" stroke-width="1.43" stroke-linecap="round" stroke-linejoin="round"/>
</g>
<defs>
<clipPath id="clip0_12786_11457">
<rect width="20" height="20" fill="white"/>
</clipPath>
</defs>
</svg>
