<svg width="16" height="15" viewBox="0 0 16 15" fill="none" xmlns="http://www.w3.org/2000/svg">
<path d="M8 14.25C5.48438 14.25 3.1875 12.9375 1.92969 10.75C0.671875 8.58984 0.671875 5.9375 1.92969 3.75C3.1875 1.58984 5.48438 0.25 8 0.25C10.4883 0.25 12.7852 1.58984 14.043 3.75C15.3008 5.9375 15.3008 8.58984 14.043 10.75C12.7852 12.9375 10.4883 14.25 8 14.25ZM11.0898 5.96484H11.0625C11.3359 5.71875 11.3359 5.30859 11.0625 5.03516C10.8164 4.78906 10.4062 4.78906 10.1602 5.03516L7.125 8.09766L5.83984 6.8125C5.56641 6.53906 5.15625 6.53906 4.91016 6.8125C4.63672 7.05859 4.63672 7.46875 4.91016 7.71484L6.66016 9.46484C6.90625 9.73828 7.31641 9.73828 7.58984 9.46484L11.0898 5.96484Z" fill="#005F9F"/>
</svg>
