<svg width="20" height="20" viewBox="0 0 20 20" fill="none" xmlns="http://www.w3.org/2000/svg">
<g clip-path="url(#clip0_12786_11465)">
<path d="M10.0002 11.3265C11.8316 11.3265 13.3162 9.84182 13.3162 8.01041C13.3162 6.17899 11.8316 4.69434 10.0002 4.69434C8.16874 4.69434 6.68408 6.17899 6.68408 8.01041C6.68408 9.84182 8.16874 11.3265 10.0002 11.3265Z" stroke="#EC354D" stroke-width="1.43" stroke-linecap="round" stroke-linejoin="round"/>
<path d="M4.33643 16.4995C4.92833 15.5279 5.76023 14.7249 6.75213 14.1678C7.74403 13.6105 8.86258 13.3179 10.0003 13.3179C11.138 13.3179 12.2565 13.6105 13.2484 14.1678C14.2404 14.7249 15.0722 15.5279 15.6642 16.4995" stroke="#EC354D" stroke-width="1.43" stroke-linecap="round" stroke-linejoin="round"/>
<path d="M10.0002 18.6217C14.7619 18.6217 18.622 14.7617 18.622 9.99996C18.622 5.23828 14.7619 1.37817 10.0002 1.37817C5.23852 1.37817 1.37842 5.23828 1.37842 9.99996C1.37842 14.7617 5.23852 18.6217 10.0002 18.6217Z" stroke="#EC354D" stroke-width="1.43" stroke-linecap="round" stroke-linejoin="round"/>
</g>
<defs>
<clipPath id="clip0_12786_11465">
<rect width="20" height="20" fill="white"/>
</clipPath>
</defs>
</svg>
