<svg width="72" height="72" viewBox="0 0 72 72" fill="none" xmlns="http://www.w3.org/2000/svg">
<path d="M53.25 8.68457H18.75C17.9561 8.68457 17.3125 9.32817 17.3125 10.1221V67.6249C17.3125 68.4187 17.9561 69.0624 18.75 69.0624H53.25C54.0438 69.0624 54.6875 68.4187 54.6875 67.6249V10.1221C54.6875 9.32817 54.0438 8.68457 53.25 8.68457Z" fill="#E3E3E3"/>
<path d="M54.055 8.975C53.823 8.7981 53.5415 8.69765 53.25 8.6875H18.75C18.3687 8.6875 18.0031 8.83896 17.7335 9.10854C17.464 9.3781 17.3125 9.74375 17.3125 10.125V45.706L54.055 8.975Z" fill="white"/>
<path d="M30.9688 8.6875H18.75C18.3687 8.6875 18.0031 8.83896 17.7335 9.10854C17.464 9.3781 17.3125 9.74375 17.3125 10.125V67.625C17.3125 68.0062 17.464 68.3719 17.7335 68.6416C18.0031 68.911 18.3687 69.0625 18.75 69.0625H53.25C53.6312 69.0625 53.9969 68.911 54.2666 68.6416C54.536 68.3719 54.6875 68.0062 54.6875 67.625V30.2011" stroke="#002F4F" stroke-width="3" stroke-linecap="round" stroke-linejoin="round"/>
<path d="M69.0625 64.75L66.1875 59.1898V46.0625C66.3083 40.9508 60.2046 36.3939 54.6875 31.6875V47.3534L51.7205 44.3203C51.3936 43.9799 51.0023 43.7076 50.5696 43.519C50.137 43.3304 49.6712 43.2292 49.1991 43.2211C48.7271 43.2134 48.2581 43.2991 47.8194 43.473C47.3807 43.6472 46.9805 43.9063 46.6424 44.2354C46.3043 44.5649 46.0343 44.9579 45.8486 45.3918C45.6629 45.8259 45.5648 46.2922 45.5602 46.7643C45.5554 47.2364 45.6442 47.7047 45.8213 48.1423C45.9981 48.5799 46.26 48.978 46.5915 49.3141L54.6875 57.5625V61.875C55.1277 64.447 56.1075 66.8965 57.5625 69.0625" fill="#9C6639"/>
<path d="M69.0625 64.75L66.1875 59.1898V46.0625C66.3083 40.9507 60.2046 36.3939 54.6875 31.6875V47.3534L51.7205 44.3203C51.3936 43.9799 51.0023 43.7076 50.5696 43.519C50.137 43.3304 49.6712 43.2292 49.1991 43.2211C48.7271 43.2134 48.2581 43.2991 47.8194 43.473C47.3807 43.6472 46.9805 43.9063 46.6424 44.2354C46.3043 44.5649 46.0343 44.9579 45.8486 45.3918C45.6629 45.8259 45.5648 46.2922 45.5602 46.7643C45.5554 47.2364 45.6442 47.7047 45.8213 48.1423C45.9981 48.5799 46.26 48.978 46.5915 49.3141L54.6875 57.5625V61.875C55.1277 64.447 56.1075 66.8965 57.5625 69.0625" stroke="#002F4F" stroke-width="3" stroke-linecap="round" stroke-linejoin="round"/>
<path d="M59.0546 51.8126L54.6875 47.3506" stroke="#002F4F" stroke-width="3" stroke-linecap="round" stroke-linejoin="round"/>
<path d="M2.9375 7.25L5.8125 12.8103V25.9375C5.69175 31.0521 11.7954 35.6061 17.3125 40.3125V24.6495L20.2795 27.6798C20.6066 28.0202 20.9977 28.2925 21.4304 28.4811C21.8632 28.6697 22.3289 28.7709 22.8009 28.7788C23.2729 28.7867 23.7418 28.7011 24.1806 28.527C24.6194 28.3529 25.0194 28.0938 25.3576 27.7644C25.6959 27.4351 25.9656 27.0422 26.1513 26.6082C26.337 26.1742 26.4351 25.7078 26.4398 25.2357C26.4446 24.7637 26.3559 24.2954 26.1789 23.8578C26.0019 23.4202 25.74 23.0219 25.4085 22.6859L17.3125 14.4375V10.125C16.8717 7.55323 15.892 5.10378 14.4375 2.9375" fill="#FFDDA1"/>
<path d="M2.9375 7.25L5.8125 12.8103V25.9375C5.69175 31.0521 11.7954 35.6061 17.3125 40.3125V24.6495L20.2795 27.6798C20.6066 28.0202 20.9977 28.2925 21.4304 28.4811C21.8632 28.6697 22.3289 28.7709 22.8009 28.7788C23.2729 28.7867 23.7418 28.7011 24.1806 28.527C24.6194 28.3529 25.0194 28.0938 25.3576 27.7644C25.6959 27.4351 25.9656 27.0422 26.1513 26.6082C26.337 26.1742 26.4351 25.7078 26.4398 25.2357C26.4446 24.7637 26.3559 24.2954 26.1789 23.8578C26.0019 23.4202 25.74 23.0219 25.4085 22.6859L17.3125 14.4375V10.125C16.8717 7.55323 15.892 5.10378 14.4375 2.9375" stroke="#002F4F" stroke-width="3" stroke-linecap="round" stroke-linejoin="round"/>
<path d="M12.9453 20.1875L17.3124 24.6495" stroke="#002F4F" stroke-width="3" stroke-linecap="round" stroke-linejoin="round"/>
<path d="M38.875 46.0625H23.0625" stroke="#002F4F" stroke-width="3" stroke-linecap="round" stroke-linejoin="round"/>
<path d="M48.9375 37.4375H23.0625" stroke="#002F4F" stroke-width="3" stroke-linecap="round" stroke-linejoin="round"/>
<path d="M36 54.6875H23.0625" stroke="#002F4F" stroke-width="3" stroke-linecap="round" stroke-linejoin="round"/>
<path d="M48.8828 25.9346C55.234 25.9346 60.3828 20.7858 60.3828 14.4346C60.3828 8.08329 55.234 2.93457 48.8828 2.93457C42.5314 2.93457 37.3828 8.08329 37.3828 14.4346C37.3828 20.7858 42.5314 25.9346 48.8828 25.9346Z" fill="#FBDB4C" stroke="#002F4F" stroke-width="3" stroke-linecap="round" stroke-linejoin="round"/>
<path d="M60.4375 5.8125L49.9552 16.2919C49.8218 16.4257 49.6631 16.532 49.4883 16.6044C49.3138 16.6769 49.1267 16.7142 48.9375 16.7142C48.7483 16.7142 48.5612 16.6769 48.3867 16.6044C48.2119 16.532 48.0532 16.4257 47.9198 16.2919L44.625 13" stroke="#002F4F" stroke-width="3" stroke-linecap="round" stroke-linejoin="round"/>
</svg>
