<svg width="72" height="72" viewBox="0 0 72 72" fill="none" xmlns="http://www.w3.org/2000/svg">
<mask id="mask0_12734_4965" style="mask-type:luminance" maskUnits="userSpaceOnUse" x="1" y="1" width="70" height="70">
<path d="M1.5 1.5H70.5V70.5H1.5V1.5Z" fill="white"/>
</mask>
<g mask="url(#mask0_12734_4965)">
<path opacity="0.1" d="M5.8125 12.3533V34.3097C5.89656 41.5648 8.20847 48.6188 12.4351 54.5162C16.6617 60.4136 22.5988 64.8694 29.4421 67.2802L32.665 68.4705C34.818 69.2611 37.182 69.2611 39.335 68.4705L42.5579 67.2802C49.4008 64.8687 55.3374 60.4127 59.5639 54.5155C63.7904 48.6182 66.1026 41.5646 66.1875 34.3097V12.3533C66.185 11.4906 65.9292 10.6477 65.4518 9.92905C64.9744 9.21044 64.2965 8.64784 63.5023 8.31109C54.7933 4.6761 45.4367 2.84801 36 2.93772C26.5633 2.84801 17.2067 4.6761 8.49775 8.31109C7.70369 8.64815 7.026 9.21082 6.54868 9.92936C6.07136 10.6479 5.81539 11.4907 5.8125 12.3533Z" fill="#002F4F"/>
<path d="M36 2.93772C26.5633 2.84801 17.2067 4.6761 8.49775 8.31109C7.70369 8.64815 7.026 9.21082 6.54868 9.92936C6.07136 10.6479 5.81539 11.4907 5.8125 12.3533V34.3097C5.89656 41.5648 8.20847 48.6188 12.4351 54.5162C16.6617 60.4136 22.5988 64.8694 29.4421 67.2802L32.665 68.4705C33.7345 68.8615 34.8615 69.0627 36 69.0627V2.93772Z" fill="white"/>
<path d="M5.8125 12.3533V34.3097C5.89656 41.5648 8.20847 48.6188 12.4351 54.5162C16.6617 60.4136 22.5988 64.8694 29.4421 67.2802L32.665 68.4705C34.818 69.2611 37.182 69.2611 39.335 68.4705L42.5579 67.2802C49.4008 64.8687 55.3374 60.4127 59.5639 54.5155C63.7904 48.6182 66.1026 41.5646 66.1875 34.3097V12.3533C66.185 11.4906 65.9292 10.6477 65.4518 9.92905C64.9744 9.21044 64.2965 8.64784 63.5023 8.31109C54.7933 4.6761 45.4367 2.84801 36 2.93772C26.5633 2.84801 17.2067 4.6761 8.49775 8.31109C7.70369 8.64815 7.026 9.21082 6.54868 9.92936C6.07136 10.6479 5.81539 11.4907 5.8125 12.3533Z" stroke="#002F4F" stroke-width="3" stroke-linecap="round" stroke-linejoin="round"/>
</g>
<path d="M38.5206 47.7853C38.206 46.7999 38.0512 45.7705 38.0622 44.7362C38.0622 41.9827 39.156 39.342 41.103 37.395C43.05 35.448 45.6907 34.3542 48.4442 34.3542C48.9687 34.4171 49.4975 34.4374 50.0254 34.4149L49.7858 30.2845C40.6269 27.1923 30.706 27.1923 21.5469 30.2845L21.4048 34.4548C21.8967 34.3894 22.3923 34.3558 22.8886 34.3542C24.505 34.3545 26.0991 34.7324 27.5437 35.4577C28.9883 36.1829 30.2437 37.2354 31.2097 38.5314C32.1758 39.8274 32.8259 41.331 33.1083 42.9227C33.3907 44.5141 33.2974 46.1497 32.8361 47.699L38.5206 47.7853Z" fill="#FBDB4C"/>
<path opacity="0.25" d="M25.4732 33.5555C25.4698 31.9377 25.8531 30.3425 26.5912 28.9028C24.8827 29.2619 23.1972 29.7233 21.544 30.2844L21.4019 34.4548C21.8948 34.3893 22.3915 34.3557 22.8889 34.3541C23.7827 34.3533 24.6728 34.4682 25.5371 34.6959C25.4948 34.3172 25.4735 33.9366 25.4732 33.5555Z" fill="#4E555C"/>
<path opacity="0.25" d="M49.786 30.2843C48.1329 29.723 46.4475 29.2621 44.7388 28.9043C45.477 30.3433 45.8605 31.9381 45.8568 33.5554C45.8565 33.9364 45.8351 34.3171 45.7929 34.6958C46.6582 34.4678 47.5494 34.3529 48.4443 34.354C48.9689 34.417 49.4977 34.4373 50.0256 34.4147L49.786 30.2843Z" fill="#4E555C"/>
<path opacity="0.25" d="M38.1419 43.4453C36.5163 43.8499 34.8162 43.8499 33.1905 43.4453C33.3688 44.8723 33.248 46.3208 32.8359 47.6987L38.5205 47.785C38.2058 46.7996 38.051 45.7702 38.062 44.7359C38.062 44.3045 38.0887 43.8734 38.1419 43.4453Z" fill="#4E555C"/>
<path d="M22.6045 29.9395C31.1136 27.3073 40.2194 27.3073 48.7286 29.9395" stroke="#002F4F" stroke-width="3" stroke-linecap="round" stroke-linejoin="round"/>
<path d="M35.6664 15.1875C32.0335 15.1875 28.4823 16.2648 25.4617 18.2831C22.441 20.3014 20.0868 23.1701 18.6965 26.5264C17.3063 29.8827 16.9425 33.576 17.6513 37.1389C18.36 40.702 20.1094 43.9749 22.6782 46.5437C25.247 49.1125 28.5199 50.8619 32.083 51.5706C35.646 52.2795 39.3392 51.9156 42.6956 50.5254C46.0519 49.1352 48.9206 46.7809 50.9389 43.7604C52.9571 40.7397 54.0345 37.1884 54.0345 33.5556C54.0345 28.684 52.0993 24.0121 48.6545 20.5674C45.21 17.1227 40.5379 15.1875 35.6664 15.1875ZM35.6664 47.1319C32.9813 47.1319 30.3564 46.3357 28.1238 44.8439C25.8911 43.3521 24.151 41.2318 23.1235 38.751C22.0959 36.2702 21.827 33.5405 22.3509 30.9069C22.8747 28.2734 24.1678 25.8543 26.0665 23.9556C27.9651 22.0569 30.3842 20.7639 33.0177 20.24C35.6514 19.7162 38.381 19.985 40.8618 21.0126C43.3426 22.0402 45.463 23.7803 46.9548 26.0129C48.4466 28.2455 49.2428 30.8705 49.2428 33.5556C49.2428 37.1562 47.8125 40.6094 45.2663 43.1555C42.7204 45.7016 39.267 47.1319 35.6664 47.1319Z" fill="#EC354D" stroke="#002F4F" stroke-width="3" stroke-linecap="round" stroke-linejoin="round"/>
<path d="M35.6663 35.9513C36.9895 35.9513 38.0622 34.8786 38.0622 33.5555C38.0622 32.2324 36.9895 31.1597 35.6663 31.1597C34.3432 31.1597 33.2705 32.2324 33.2705 33.5555C33.2705 34.8786 34.3432 35.9513 35.6663 35.9513Z" fill="#002F4F"/>
<path d="M22.1411 34.3816C22.3887 34.3641 22.6378 34.3545 22.8886 34.3545C25.6421 34.3545 28.2828 35.4483 30.2298 37.3953C32.1767 39.3423 33.2706 41.983 33.2706 44.7364C33.2712 45.4571 33.1947 46.1757 33.0422 46.8799" stroke="#002F4F" stroke-width="3" stroke-linecap="round" stroke-linejoin="round"/>
<path d="M38.2845 46.8799C38.1268 46.1767 38.0522 45.4571 38.0624 44.7364C38.0624 41.983 39.1562 39.3423 41.1032 37.3953C43.0503 35.4483 45.6909 34.3545 48.4444 34.3545C48.7319 34.3545 48.9347 34.3976 49.2143 34.4216" stroke="#002F4F" stroke-width="3" stroke-linecap="round" stroke-linejoin="round"/>
</svg>
