<svg width="72" height="72" viewBox="0 0 72 72" fill="none" xmlns="http://www.w3.org/2000/svg">
<path d="M27.2113 53.4026C25.0547 55.5585 22.1302 56.7696 19.0808 56.7696C16.0314 56.7696 13.1068 55.5585 10.9503 53.4026L6.88215 49.3402C5.81422 48.2723 4.96708 47.0045 4.38911 45.6093C3.81115 44.214 3.51367 42.7185 3.51367 41.2083C3.51367 39.698 3.81115 38.2025 4.38911 36.8073C4.96708 35.412 5.81422 34.1442 6.88215 33.0763L21.1134 18.8451C23.27 16.6892 26.1945 15.478 29.2439 15.478C32.2933 15.478 35.2178 16.6892 37.3744 18.8451L41.4425 22.9103C42.5108 23.978 43.3582 25.2457 43.9364 26.641C44.5146 28.0363 44.8122 29.5319 44.8122 31.0423C44.8122 32.5526 44.5146 34.0482 43.9364 35.4435C43.3582 36.8388 42.5108 38.1065 41.4425 39.1742L27.2113 53.4026Z" fill="#005F9F"/>
<path opacity="0.2" d="M9.08153 51.5248L39.5738 21.0498L37.3744 18.8504C35.2178 16.6945 32.2933 15.4834 29.2439 15.4834C26.1945 15.4834 23.27 16.6945 21.1134 18.8504L6.88215 33.0817C5.81422 34.1496 4.96708 35.4174 4.38911 36.8126C3.81115 38.2079 3.51367 39.7034 3.51367 41.2136C3.51367 42.7239 3.81115 44.2193 4.38911 45.6146C4.96708 47.0099 5.81422 48.2777 6.88215 49.3456L9.08153 51.5248Z" fill="white"/>
<path d="M44.421 28.065C43.8994 26.1144 42.8719 24.3362 41.4425 22.9101L37.3744 18.8449C35.9473 17.4186 34.1692 16.3942 32.2195 15.875L15.0126 33.0761C13.9347 34.1544 13.3291 35.6167 13.3291 37.1414C13.3291 38.6661 13.9347 40.1283 15.0126 41.2066L19.0779 45.2747C20.1562 46.3527 21.6184 46.9583 23.1431 46.9583C24.6678 46.9583 26.1301 46.3527 27.2084 45.2747L44.421 28.065Z" fill="#EC354D"/>
<path d="M51.2373 40.6431C51.2373 39.1181 51.8431 37.6555 52.9214 36.5772C53.9998 35.4989 55.4623 34.8931 56.9873 34.8931H62.7373C63.4924 34.8931 64.2401 35.0418 64.9377 35.3308C65.6354 35.6197 66.2692 36.0433 66.8032 36.5772C67.3371 37.1111 67.7606 37.745 68.0496 38.4426C68.3386 39.1403 68.4873 39.888 68.4873 40.6431V46.3931C68.4865 47.1553 68.1834 47.8862 67.6444 48.4252C67.1054 48.9642 66.3746 49.2673 65.6123 49.2681H54.1123C53.3498 49.2681 52.6185 48.9652 52.0794 48.426C51.5402 47.8868 51.2373 47.1556 51.2373 46.3931V40.6431Z" fill="#FBDB4C"/>
<path opacity="0.5" d="M62.7373 34.8931H56.9873C55.4623 34.8931 53.9998 35.4989 52.9214 36.5772C51.8431 37.6555 51.2373 39.1181 51.2373 40.6431V46.0624C51.2373 44.5374 51.8431 43.0749 52.9214 41.9966C53.9998 40.9182 55.4623 40.3124 56.9873 40.3124H62.7373C63.4924 40.3124 64.2401 40.4612 64.9377 40.7501C65.6354 41.0391 66.2692 41.4626 66.8032 41.9966C67.3371 42.5305 67.7606 43.1644 68.0496 43.862C68.3386 44.5596 68.4873 45.3073 68.4873 46.0624V40.6431C68.4873 39.1181 67.8815 37.6555 66.8032 36.5772C65.7248 35.4989 64.2623 34.8931 62.7373 34.8931Z" fill="white"/>
<path d="M27.2113 53.4026C25.0547 55.5585 22.1302 56.7696 19.0808 56.7696C16.0314 56.7696 13.1068 55.5585 10.9503 53.4026L6.88215 49.3402C5.81422 48.2723 4.96708 47.0045 4.38911 45.6093C3.81115 44.214 3.51367 42.7185 3.51367 41.2083C3.51367 39.698 3.81115 38.2025 4.38911 36.8073C4.96708 35.412 5.81422 34.1442 6.88215 33.0763L21.1134 18.8451C23.27 16.6892 26.1945 15.478 29.2439 15.478C32.2933 15.478 35.2178 16.6892 37.3744 18.8451L41.4425 22.9103C42.5108 23.978 43.3582 25.2457 43.9364 26.641C44.5146 28.0363 44.8122 29.5319 44.8122 31.0423C44.8122 32.5526 44.5146 34.0482 43.9364 35.4435C43.3582 36.8388 42.5108 38.1065 41.4425 39.1742L27.2113 53.4026Z" stroke="#002F4F" stroke-width="3" stroke-linecap="round" stroke-linejoin="round"/>
<path d="M32.2195 15.875L15.0126 33.0761C13.9347 34.1544 13.3291 35.6167 13.3291 37.1414C13.3291 38.6661 13.9347 40.1283 15.0126 41.2066L19.0779 45.2747C20.1562 46.3527 21.6184 46.9583 23.1431 46.9583C24.6678 46.9583 26.1301 46.3527 27.2084 45.2747L44.421 28.065" stroke="#002F4F" stroke-width="3" stroke-linecap="round" stroke-linejoin="round"/>
<path d="M25.1783 39.1623C24.9131 39.4369 24.5959 39.656 24.2451 39.8066C23.8943 39.9573 23.5171 40.0366 23.1353 40.0399C22.7536 40.0432 22.375 39.9705 22.0217 39.8259C21.6684 39.6814 21.3474 39.4679 21.0774 39.198C20.8075 38.928 20.594 38.607 20.4494 38.2537C20.3049 37.9004 20.2321 37.5218 20.2355 37.1401C20.2388 36.7583 20.3181 36.3811 20.4688 36.0303C20.6194 35.6795 20.8385 35.3623 21.1131 35.0971C21.6553 34.5734 22.3815 34.2836 23.1353 34.2901C23.8891 34.2967 24.6102 34.5991 25.1433 35.1321C25.6763 35.6652 25.9787 36.3862 25.9852 37.1401C25.9918 37.8939 25.702 38.6201 25.1783 39.1623Z" fill="#002F4F"/>
<path d="M33.3091 31.0405C33.042 31.3074 32.7249 31.5191 32.376 31.6635C32.027 31.8079 31.6531 31.8822 31.2754 31.882C30.8978 31.8819 30.5239 31.8074 30.1751 31.6627C29.8263 31.5181 29.5093 31.3062 29.2424 31.0391C28.9755 30.772 28.7638 30.4549 28.6194 30.1059C28.475 29.757 28.4007 29.3831 28.4009 29.0054C28.401 28.6278 28.4755 28.2539 28.6202 27.9051C28.7648 27.5562 28.9767 27.2393 29.2438 26.9724C29.7833 26.4333 30.5148 26.1306 31.2775 26.1309C32.0401 26.1311 32.7714 26.4344 33.3105 26.9738C33.8496 27.5133 34.1523 28.2448 34.152 29.0075C34.1518 29.7701 33.8486 30.5014 33.3091 31.0405Z" fill="#002F4F"/>
<path d="M45.4849 23.3931C47.7724 23.3931 49.9662 22.4844 51.5837 20.8669C53.2012 19.2494 54.1099 17.0556 54.1099 14.7681C54.1099 12.4806 53.2012 10.2868 51.5837 8.66927C49.9662 7.05177 47.7724 6.14307 45.4849 6.14307C43.1974 6.14307 41.0036 7.05177 39.3861 8.66927C37.7686 10.2868 36.8599 12.4806 36.8599 14.7681C36.8599 17.0556 37.7686 19.2494 39.3861 20.8669C41.0036 22.4844 43.1974 23.3931 45.4849 23.3931Z" stroke="#002F4F" stroke-width="3" stroke-linecap="round" stroke-linejoin="round"/>
<path d="M56.9849 29.1431C59.2724 29.1431 61.4662 28.2344 63.0837 26.6169C64.7012 24.9994 65.6099 22.8056 65.6099 20.5181C65.6099 18.2306 64.7012 16.0368 63.0837 14.4193C61.4662 12.8018 59.2724 11.8931 56.9849 11.8931C54.6974 11.8931 52.5036 12.8018 50.8861 14.4193C49.2686 16.0368 48.3599 18.2306 48.3599 20.5181C48.3599 22.8056 49.2686 24.9994 50.8861 26.6169C52.5036 28.2344 54.6974 29.1431 56.9849 29.1431Z" stroke="#002F4F" stroke-width="3" stroke-linecap="round" stroke-linejoin="round"/>
<path d="M51.2373 40.6431C51.2373 39.1181 51.8431 37.6555 52.9214 36.5772C53.9998 35.4989 55.4623 34.8931 56.9873 34.8931H62.7373C63.4924 34.8931 64.2401 35.0418 64.9377 35.3308C65.6354 35.6197 66.2692 36.0433 66.8032 36.5772C67.3371 37.1111 67.7606 37.745 68.0496 38.4426C68.3386 39.1403 68.4873 39.888 68.4873 40.6431V46.3931C68.4865 47.1553 68.1834 47.8862 67.6444 48.4252C67.1054 48.9642 66.3746 49.2673 65.6123 49.2681H54.1123C53.3498 49.2681 52.6185 48.9652 52.0794 48.426C51.5402 47.8868 51.2373 47.1556 51.2373 46.3931V40.6431Z" stroke="#002F4F" stroke-width="3" stroke-linecap="round" stroke-linejoin="round"/>
<path d="M62.7373 49.2681H56.9873V62.9387C56.9876 63.4023 57.1001 63.859 57.3151 64.2698L57.3381 64.3158C57.6335 64.8846 58.1114 65.3378 58.6952 65.6025C59.2789 65.8672 59.9347 65.9283 60.5573 65.7758C61.1798 65.6233 61.7331 65.2661 62.1285 64.7616C62.5238 64.257 62.7382 63.6343 62.7373 62.9933V49.2681Z" fill="white" stroke="#002F4F" stroke-width="3" stroke-linecap="round" stroke-linejoin="round"/>
<path d="M59.8599 39.2056V24.8306" stroke="#002F4F" stroke-width="3" stroke-linecap="round" stroke-linejoin="round"/>
</svg>
