<svg width="72" height="72" viewBox="0 0 72 72" fill="none" xmlns="http://www.w3.org/2000/svg">
<path d="M36.0002 3.0813C29.668 3.08097 23.4702 4.90727 18.1499 8.34117C12.8297 11.7751 8.61301 16.6708 6.00551 22.4412C3.398 28.2115 2.51041 34.6116 3.44918 40.8738C4.38795 47.136 7.11322 52.9944 11.2982 57.7465C18.5507 52.7426 27.1904 50.1402 36.0002 50.306C44.8092 50.1393 53.4514 52.7412 60.7022 57.7465C64.8871 52.9944 67.6124 47.136 68.5511 40.8738C69.4899 34.6116 68.6023 28.2115 65.9948 22.4412C63.3873 16.6708 59.1706 11.7751 53.8504 8.34117C48.5302 4.90727 42.3323 3.08097 36.0002 3.0813Z" fill="#C2F3FF"/>
<path d="M36.0001 14.2421C43.4921 14.2423 50.7716 16.7325 56.6941 21.3211C62.6165 25.9097 66.846 32.3365 68.7176 39.591C69.222 34.9931 68.7516 30.3404 67.3371 25.9365C65.9226 21.5326 63.5957 17.4763 60.5082 14.0321C57.4206 10.5879 53.6418 7.83321 49.4181 5.94759C45.1944 4.06198 40.6206 3.08781 35.9951 3.08862C31.3696 3.08944 26.7962 4.06521 22.5731 5.95231C18.3501 7.83941 14.5722 10.5955 11.4859 14.0407C8.39957 17.486 6.0741 21.5431 4.66113 25.9475C3.24815 30.352 2.77941 35.0047 3.28546 39.6025C5.15529 32.3469 9.38366 25.9185 15.3057 21.3283C21.2277 16.7381 28.5074 14.2463 36.0001 14.245V14.2421Z" fill="#66E1FF"/>
<path d="M11.2979 57.7463C14.3853 61.2563 18.1854 64.068 22.4448 65.994C26.7042 67.9201 31.3252 68.9164 35.9999 68.9164C40.6745 68.9164 45.2955 67.9201 49.5549 65.994C53.8143 64.068 57.6144 61.2563 60.7019 57.7463C53.4493 52.7423 44.8096 50.14 35.9999 50.3058C27.1901 50.14 18.5504 52.7423 11.2979 57.7463Z" fill="white"/>
<path d="M14.8859 61.2337C28.7883 58.108 43.2114 58.108 57.1138 61.2337C58.3952 60.1624 59.5946 58.9967 60.7019 57.7463C53.4493 52.7423 44.8096 50.14 35.9999 50.3058C27.1901 50.14 18.5504 52.7423 11.2979 57.7463C12.4047 58.9969 13.6036 60.1613 14.8859 61.2337Z" fill="white"/>
<path d="M36.0002 3.0813C29.668 3.08097 23.4702 4.90727 18.1499 8.34117C12.8297 11.7751 8.61301 16.6708 6.00551 22.4412C3.398 28.2115 2.51041 34.6116 3.44918 40.8738C4.38795 47.136 7.11322 52.9944 11.2982 57.7465C18.5507 52.7426 27.1904 50.1402 36.0002 50.306C44.8092 50.1393 53.4514 52.7412 60.7022 57.7465C64.8871 52.9944 67.6124 47.136 68.5511 40.8738C69.4899 34.6116 68.6023 28.2115 65.9948 22.4412C63.3873 16.6708 59.1706 11.7751 53.8504 8.34117C48.5302 4.90727 42.3323 3.08097 36.0002 3.0813Z" stroke="#002F4F" stroke-width="3" stroke-linecap="round" stroke-linejoin="round"/>
<path d="M11.2979 57.7463C14.3853 61.2563 18.1854 64.068 22.4448 65.994C26.7042 67.9201 31.3252 68.9164 35.9999 68.9164C40.6745 68.9164 45.2955 67.9201 49.5549 65.994C53.8143 64.068 57.6144 61.2563 60.7019 57.7463C53.4493 52.7423 44.8096 50.14 35.9999 50.3058C27.1901 50.14 18.5504 52.7423 11.2979 57.7463Z" stroke="#002F4F" stroke-width="3" stroke-linecap="round" stroke-linejoin="round"/>
<path d="M40.0481 40.0423C38.9745 41.1159 37.5184 41.7191 36.0001 41.7191C34.4818 41.7191 33.0257 41.1159 31.9521 40.0423C30.8785 38.9687 30.2754 37.5126 30.2754 35.9943C30.2754 34.476 30.8785 33.0199 31.9521 31.9463C34.1889 29.7125 55.2281 16.7778 55.2281 16.7778C55.2281 16.7778 42.2964 37.8056 40.0481 40.0423Z" fill="#EC354D" stroke="#002F4F" stroke-width="3" stroke-linecap="round" stroke-linejoin="round"/>
<path d="M11.6719 35.9941H15.9671" stroke="#002F4F" stroke-width="3" stroke-linecap="round" stroke-linejoin="round"/>
<path d="M18.7988 18.7932L21.832 21.8263" stroke="#002F4F" stroke-width="3" stroke-linecap="round" stroke-linejoin="round"/>
<path d="M36 11.666V15.9613" stroke="#002F4F" stroke-width="3" stroke-linecap="round" stroke-linejoin="round"/>
<path d="M60.3285 35.9941H56.0332" stroke="#002F4F" stroke-width="3" stroke-linecap="round" stroke-linejoin="round"/>
</svg>
