<svg width="17" height="17" viewBox="0 0 17 17" fill="none" xmlns="http://www.w3.org/2000/svg">
<path d="M16.5 3.5C16.5 5.09375 14.625 7.4375 13.8438 8.34375C13.7188 8.5 13.5625 8.5625 13.375 8.5H10.5C9.9375 8.5 9.5 8.96875 9.5 9.5C9.5 10.0625 9.9375 10.5 10.5 10.5H13.5C15.1562 10.5 16.5 11.8438 16.5 13.5C16.5 15.1562 15.1562 16.5 13.5 16.5H4.84375C5.125 16.2188 5.4375 15.8125 5.78125 15.375C5.96875 15.0938 6.1875 14.8125 6.375 14.5H13.5C14.0312 14.5 14.5 14.0625 14.5 13.5C14.5 12.9688 14.0312 12.5 13.5 12.5H10.5C8.84375 12.5 7.5 11.1562 7.5 9.5C7.5 7.84375 8.84375 6.5 10.5 6.5H11.7188C11.0625 5.53125 10.5 4.40625 10.5 3.5C10.5 1.84375 11.8438 0.5 13.5 0.5C15.1562 0.5 16.5 1.84375 16.5 3.5ZM4.15625 15.8125C4.03125 15.9375 3.90625 16.0625 3.84375 16.1562L3.78125 16.2188C3.59375 16.3438 3.3125 16.3438 3.15625 16.1562C2.34375 15.2812 0.5 13.0938 0.5 11.5C0.5 9.84375 1.84375 8.5 3.5 8.5C5.15625 8.5 6.5 9.84375 6.5 11.5C6.5 12.4375 5.8125 13.5938 5.125 14.5625C4.78125 15.0312 4.4375 15.4375 4.15625 15.7812V15.8125ZM4.5 11.5C4.5 10.9688 4.03125 10.5 3.5 10.5C2.9375 10.5 2.5 10.9688 2.5 11.5C2.5 12.0625 2.9375 12.5 3.5 12.5C4.03125 12.5 4.5 12.0625 4.5 11.5ZM13.5 4.5C14.0312 4.5 14.5 4.0625 14.5 3.5C14.5 2.96875 14.0312 2.5 13.5 2.5C12.9375 2.5 12.5 2.96875 12.5 3.5C12.5 4.0625 12.9375 4.5 13.5 4.5Z" fill="#EC354D"/>
</svg>
