<svg width="20" height="20" viewBox="0 0 20 20" fill="none" xmlns="http://www.w3.org/2000/svg">
<g clip-path="url(#clip0_12579_9552)">
<path d="M10.6218 18.0521C11.3095 18.4949 12.128 18.689 12.9413 18.6021C13.7546 18.5152 14.5136 18.1527 15.0922 17.5746L15.5963 17.0705C15.8199 16.8445 15.9453 16.5394 15.9453 16.2215C15.9453 15.9036 15.8199 15.5986 15.5963 15.3725L13.4739 13.2634C13.2501 13.0406 12.9472 12.9155 12.6315 12.9155C12.3158 12.9155 12.0129 13.0406 11.7892 13.2634C11.5632 13.4869 11.2581 13.6123 10.9402 13.6123C10.6223 13.6123 10.3172 13.4869 10.0912 13.2634L6.70856 9.8807C6.48498 9.6547 6.35958 9.34963 6.35958 9.03172C6.35958 8.71381 6.48498 8.40874 6.70856 8.18274C6.93133 7.95901 7.05639 7.65612 7.05639 7.34039C7.05639 7.02466 6.93133 6.72179 6.70856 6.49804L4.66574 4.37559C4.4397 4.15202 4.1346 4.02661 3.81676 4.02661C3.49879 4.02661 3.19369 4.15202 2.96779 4.37559L2.4637 4.87968C1.87525 5.45014 1.50024 6.20515 1.40129 7.01871C1.30233 7.83228 1.48525 8.65518 1.91983 9.35008C4.2329 12.7842 7.18773 15.7391 10.6218 18.0521Z" stroke="#EC354D" stroke-width="2" stroke-linecap="round" stroke-linejoin="round"/>
<path d="M9.99864 1.37744C11.131 1.37744 12.2522 1.60047 13.2983 2.03379C14.3444 2.46711 15.295 3.10224 16.0956 3.9029C16.8963 4.70357 17.5314 5.6541 17.9647 6.70023C18.3981 7.74634 18.6211 8.86758 18.6211 9.99989" stroke="#EC354D" stroke-width="2" stroke-linecap="round" stroke-linejoin="round"/>
<path d="M9.99857 4.69385C11.4058 4.69385 12.7555 5.25289 13.7506 6.24797C14.7456 7.24307 15.3047 8.59269 15.3047 9.99997" stroke="#EC354D" stroke-width="2" stroke-linecap="round" stroke-linejoin="round"/>
</g>
<defs>
<clipPath id="clip0_12579_9552">
<rect width="20" height="20" fill="white" transform="matrix(-1 0 0 1 20 0)"/>
</clipPath>
</defs>
</svg>
