<svg width="73" height="73" viewBox="0 0 73 73" fill="none" xmlns="http://www.w3.org/2000/svg">
<g clip-path="url(#clip0_12734_3673)">
<path d="M53.9391 30.5559H40.4323C40.0206 30.556 39.6258 30.7196 39.3347 31.0108L29.7884 40.5602C29.4972 40.8513 29.3336 41.2461 29.3335 41.6578V55.1646C29.3336 55.5763 29.4972 55.9711 29.7884 56.2622L39.3378 65.8116C39.6289 66.1027 40.0237 66.2664 40.4354 66.2665H53.9422C54.3539 66.2664 54.7487 66.1027 55.0398 65.8116L64.5892 56.2622C64.8803 55.9711 65.0439 55.5763 65.0441 55.1646V41.6578C65.0439 41.2461 64.8803 40.8513 64.5892 40.5602L55.0367 31.0108C54.7456 30.7196 54.3508 30.556 53.9391 30.5559Z" fill="white" stroke="#002F4F" stroke-width="3" stroke-linecap="round" stroke-linejoin="round"/>
<path d="M51.9744 35.4092H42.4006C42.0176 35.4093 41.6502 35.5615 41.3794 35.8324L34.6107 42.6011C34.3398 42.8719 34.1876 43.2392 34.1875 43.6223V53.1961C34.1876 53.5791 34.3398 53.9465 34.6107 54.2173L41.3794 60.986C41.6502 61.2569 42.0176 61.409 42.4006 61.4092H51.9744C52.3575 61.409 52.7248 61.2569 52.9956 60.986L59.7643 54.2173C60.0353 53.9465 60.1874 53.5791 60.1875 53.1961V43.6223C60.1874 43.2392 60.0353 42.8719 59.7643 42.6011L52.9956 35.8324C52.7248 35.5615 52.3575 35.4093 51.9744 35.4092Z" fill="#EC354D"/>
<path opacity="0.2" d="M47.1875 35.4092H42.2764C42.1281 35.4092 41.9812 35.4384 41.8441 35.4951C41.7071 35.5519 41.5825 35.6351 41.4776 35.74L34.5183 42.6935C34.4127 42.7991 34.3291 42.9246 34.2723 43.0627C34.2156 43.2008 34.1867 43.3488 34.1875 43.4981V53.3203C34.1875 53.4686 34.2167 53.6155 34.2735 53.7526C34.3302 53.8897 34.4134 54.0142 34.5183 54.1191L41.4718 61.0726C41.577 61.1792 41.7022 61.2639 41.8403 61.3216C41.9785 61.3794 42.1267 61.4092 42.2764 61.4092H47.1875V35.4092Z" fill="white"/>
<path d="M21.9574 3.23326L3.01011 22.1806C2.63956 22.5513 2.4314 23.0539 2.4314 23.578C2.4314 24.1021 2.63956 24.6048 3.01011 24.9755L21.9555 43.9228C22.139 44.1066 22.357 44.2523 22.597 44.3518C22.8369 44.4513 23.0941 44.5025 23.3539 44.5025C23.6136 44.5025 23.8708 44.4513 24.1108 44.3518C24.3507 44.2523 24.5687 44.1066 24.7523 43.9228L43.6976 24.9755C44.0682 24.6048 44.2764 24.1021 44.2764 23.578C44.2764 23.0539 44.0682 22.5513 43.6976 22.1806L24.7523 3.23326C24.5687 3.04949 24.3507 2.9037 24.1108 2.80423C23.8708 2.70476 23.6136 2.65356 23.3539 2.65356C23.0941 2.65356 22.8369 2.70476 22.597 2.80423C22.357 2.9037 22.139 3.04949 21.9555 3.23326H21.9574Z" fill="white" stroke="#002F4F" stroke-width="3" stroke-linecap="round" stroke-linejoin="round"/>
<path d="M22.4194 9.96599L9.741 22.6431C9.49305 22.8911 9.35376 23.2275 9.35376 23.5781C9.35376 23.9288 9.49305 24.2651 9.741 24.5131L22.418 37.1903C22.5409 37.3132 22.6867 37.4108 22.8473 37.4773C23.0078 37.5439 23.18 37.5781 23.3538 37.5781C23.5276 37.5781 23.6997 37.5439 23.8602 37.4773C24.0208 37.4108 24.1667 37.3132 24.2895 37.1903L36.9665 24.5131C37.2145 24.2651 37.3538 23.9288 37.3538 23.5781C37.3538 23.2275 37.2145 22.8911 36.9665 22.6431L24.2895 9.96599C24.1667 9.84303 24.0208 9.74548 23.8602 9.67893C23.6997 9.61238 23.5276 9.57812 23.3538 9.57812C23.18 9.57812 23.0078 9.61238 22.8473 9.67893C22.6867 9.74548 22.5409 9.84303 22.418 9.96599H22.4194Z" fill="#FBDB4C"/>
<path opacity="0.3" d="M23.3538 9.57812C23.003 9.5782 22.6667 9.71758 22.4187 9.96562L9.74098 22.6431C9.49304 22.8911 9.35376 23.2274 9.35376 23.5781C9.35376 23.9288 9.49304 24.2651 9.74098 24.5131L22.4187 37.1906C22.6667 37.4387 23.003 37.578 23.3538 37.5781V9.57812Z" fill="white"/>
</g>
<defs>
<clipPath id="clip0_12734_3673">
<rect width="72" height="72" fill="white" transform="translate(0.666748 0.888916)"/>
</clipPath>
</defs>
</svg>
