<svg width="73" height="73" viewBox="0 0 73 73" fill="none" xmlns="http://www.w3.org/2000/svg">
<path d="M17.9047 22.5139C19.8262 22.5139 21.7288 22.8925 23.504 23.628C25.2791 24.3634 26.8919 25.4414 28.2503 26.8004C29.6087 28.1593 30.6861 29.7726 31.4209 31.548C32.1557 33.3234 32.5335 35.2262 32.5327 37.1477C32.5327 43.8522 22.453 57.0657 19.0202 61.3638C18.8853 61.5328 18.7141 61.6692 18.5192 61.763C18.3244 61.8567 18.1109 61.9054 17.8947 61.9054C17.6785 61.9054 17.465 61.8567 17.2701 61.763C17.0753 61.6692 16.904 61.5328 16.7691 61.3638C13.3507 57.0628 3.271 43.8522 3.271 37.1477C3.27024 35.2257 3.64824 33.3225 4.38339 31.5467C5.11853 29.7709 6.19642 28.1574 7.55544 26.7984C8.91446 25.4393 10.528 24.3615 12.3038 23.6263C14.0795 22.8912 15.9828 22.5132 17.9047 22.5139Z" fill="#EC354D"/>
<path opacity="0.3" d="M17.9047 61.9014C17.6883 61.902 17.4746 61.8537 17.2794 61.7601C17.0843 61.6665 16.9128 61.53 16.7777 61.3609C13.3507 57.0628 3.271 43.8522 3.271 37.1477C3.27024 35.2257 3.64824 33.3225 4.38339 31.5467C5.11853 29.7709 6.19642 28.1574 7.55544 26.7984C8.91446 25.4393 10.528 24.3615 12.3038 23.6263C14.0795 22.8912 15.9828 22.5132 17.9047 22.5139V61.9014Z" fill="white"/>
<path d="M17.9047 22.5139C19.8262 22.5139 21.7288 22.8925 23.504 23.628C25.2791 24.3634 26.8919 25.4414 28.2503 26.8004C29.6088 28.1593 30.6861 29.7726 31.4209 31.548C32.1557 33.3234 32.5335 35.2262 32.5327 37.1477C32.5327 43.8522 22.453 57.0657 19.0202 61.3638C18.8853 61.5328 18.7141 61.6692 18.5192 61.763C18.3244 61.8567 18.1109 61.9054 17.8947 61.9054C17.6785 61.9054 17.465 61.8567 17.2701 61.763C17.0753 61.6692 16.904 61.5328 16.7691 61.3638C13.3507 57.0628 3.271 43.8522 3.271 37.1477C3.27024 35.2257 3.64824 33.3225 4.38339 31.5467C5.11853 29.7709 6.19642 28.1574 7.55544 26.7984C8.91446 25.4393 10.528 24.3615 12.3038 23.6263C14.0795 22.8912 15.9828 22.5132 17.9047 22.5139Z" stroke="#002F4F" stroke-width="3" stroke-linecap="round" stroke-linejoin="round"/>
<path d="M23.3959 37.1476C23.3959 38.6032 22.8177 39.9992 21.7884 41.0284C20.7592 42.0577 19.3632 42.6359 17.9076 42.6359C16.452 42.6359 15.056 42.0577 14.0267 41.0284C12.9974 39.9992 12.4192 38.6032 12.4192 37.1476C12.4192 35.6919 12.9974 34.296 14.0267 33.2667C15.056 32.2374 16.452 31.6592 17.9076 31.6592C19.3632 31.6592 20.7592 32.2374 21.7884 33.2667C22.8177 34.296 23.3959 35.6919 23.3959 37.1476Z" fill="white" stroke="#002F4F" stroke-width="3" stroke-linecap="round" stroke-linejoin="round"/>
<path d="M17.9048 68.5139H40.646C41.4085 68.5139 42.1398 68.211 42.679 67.6718C43.2181 67.1327 43.521 66.4014 43.521 65.6389V45.5139C43.521 44.7514 43.8239 44.0202 44.3631 43.481C44.9023 42.9418 45.6335 42.6389 46.396 42.6389H57.896" stroke="#002F4F" stroke-width="3" stroke-linecap="round" stroke-linejoin="round"/>
<path d="M57.896 5.26392C60.946 5.26392 63.8711 6.47552 66.0277 8.63219C68.1844 10.7889 69.396 13.7139 69.396 16.7639C69.396 21.8872 61.921 31.8289 59.023 35.4917C58.8884 35.6616 58.7171 35.799 58.522 35.8934C58.3268 35.9878 58.1128 36.0368 57.896 36.0368C57.6792 36.0368 57.4652 35.9878 57.27 35.8934C57.0749 35.799 56.9036 35.6616 56.769 35.4917C53.871 31.8318 46.396 21.8872 46.396 16.7639C46.396 13.7139 47.6076 10.7889 49.7643 8.63219C51.9209 6.47552 54.846 5.26392 57.896 5.26392Z" fill="#FBDB4C"/>
<path opacity="0.5" d="M57.896 36.0264C57.6791 36.0263 57.4651 35.9771 57.2699 35.8825C57.0747 35.7879 56.9035 35.6503 56.769 35.4802C53.871 31.8318 46.396 21.8872 46.396 16.7639C46.396 13.7139 47.6076 10.7889 49.7643 8.63219C51.9209 6.47552 54.846 5.26392 57.896 5.26392V36.0264Z" fill="white"/>
<path d="M57.896 5.26392C60.946 5.26392 63.8711 6.47552 66.0277 8.63219C68.1844 10.7889 69.396 13.7139 69.396 16.7639C69.396 21.8872 61.921 31.8289 59.023 35.4917C58.8884 35.6616 58.7171 35.799 58.522 35.8934C58.3268 35.9878 58.1128 36.0368 57.896 36.0368C57.6792 36.0368 57.4652 35.9878 57.27 35.8934C57.0749 35.799 56.9036 35.6616 56.769 35.4917C53.871 31.8318 46.396 21.8872 46.396 16.7639C46.396 13.7139 47.6076 10.7889 49.7643 8.63219C51.9209 6.47552 54.846 5.26392 57.896 5.26392Z" stroke="#002F4F" stroke-width="3" stroke-linecap="round" stroke-linejoin="round"/>
<path d="M57.896 21.0764C58.4623 21.0764 59.0231 20.9649 59.5463 20.7481C60.0695 20.5314 60.5449 20.2138 60.9454 19.8133C61.3458 19.4129 61.6635 18.9375 61.8802 18.4142C62.0969 17.891 62.2085 17.3302 62.2085 16.7639C62.2085 16.1976 62.0969 15.6368 61.8802 15.1136C61.6635 14.5904 61.3458 14.115 60.9454 13.7145C60.5449 13.3141 60.0695 12.9964 59.5463 12.7797C59.0231 12.563 58.4623 12.4514 57.896 12.4514C56.7522 12.4514 55.6554 12.9058 54.8466 13.7145C54.0378 14.5233 53.5835 15.6202 53.5835 16.7639C53.5835 17.9077 54.0378 19.0046 54.8466 19.8133C55.6554 20.6221 56.7522 21.0764 57.896 21.0764Z" fill="white" stroke="#002F4F" stroke-width="3" stroke-linecap="round" stroke-linejoin="round"/>
</svg>
