<svg width="40" height="41" viewBox="0 0 40 41" fill="none" xmlns="http://www.w3.org/2000/svg">
<rect y="0.888672" width="40" height="40" rx="12" fill="url(#paint0_linear_12734_6343)"/>
<g clip-path="url(#clip0_12734_6343)">
<path d="M27.2953 19.5624C27.2953 24.2409 21.8807 28.4038 20.6005 29.3226C20.4249 29.4487 20.2162 29.5107 19.9999 29.5107C19.7837 29.5107 19.575 29.4487 19.3994 29.3226C18.1192 28.4038 12.7046 24.2409 12.7046 19.5624C12.7046 15.5333 15.9708 12.2671 19.9999 12.2671C24.0291 12.2671 27.2953 15.5333 27.2953 19.5624Z" stroke="white" stroke-width="1.43" stroke-linecap="round" stroke-linejoin="round"/>
<path d="M17.3472 18.8994C17.3472 19.2478 17.4158 19.5928 17.5491 19.9146C17.6824 20.2365 17.8778 20.529 18.1242 20.7753C18.3705 21.0216 18.663 21.217 18.9848 21.3504C19.3067 21.4837 19.6516 21.5523 20 21.5523C20.3484 21.5523 20.6934 21.4837 21.0152 21.3504C21.3371 21.217 21.6295 21.0216 21.8759 20.7753C22.1222 20.529 22.3176 20.2365 22.4509 19.9146C22.5843 19.5928 22.6529 19.2478 22.6529 18.8994C22.6529 18.5511 22.5843 18.2061 22.4509 17.8842C22.3176 17.5624 22.1222 17.2699 21.8759 17.0236C21.6295 16.7772 21.3371 16.5818 21.0152 16.4485C20.6934 16.3152 20.3484 16.2466 20 16.2466C19.6516 16.2466 19.3067 16.3152 18.9848 16.4485C18.663 16.5818 18.3705 16.7772 18.1242 17.0236C17.8778 17.2699 17.6824 17.5624 17.5491 17.8842C17.4158 18.2061 17.3472 18.5511 17.3472 18.8994Z" stroke="white" stroke-width="1.43" stroke-linecap="round" stroke-linejoin="round"/>
</g>
<defs>
<linearGradient id="paint0_linear_12734_6343" x1="0" y1="0.888672" x2="40" y2="40.8887" gradientUnits="userSpaceOnUse">
<stop stop-color="#B3DF03"/>
<stop offset="1" stop-color="#00996B"/>
</linearGradient>
<clipPath id="clip0_12734_6343">
<rect width="20" height="20" fill="white" transform="translate(10 10.8887)"/>
</clipPath>
</defs>
</svg>
