<svg width="72" height="73" viewBox="0 0 72 73" fill="none" xmlns="http://www.w3.org/2000/svg">
<path d="M63.1601 66.9499C63.1593 67.7081 62.8576 68.435 62.3212 68.9708C61.7848 69.5067 61.0577 69.8077 60.2995 69.8077H11.7005C11.3249 69.808 10.953 69.7344 10.606 69.591C10.2589 69.4475 9.94355 69.2371 9.67788 68.9717C9.4122 68.7063 9.20145 68.3911 9.05765 68.0442C8.91386 67.6973 8.83984 67.3254 8.83984 66.9499V35.5032H63.1572V66.9499H63.1601Z" fill="#FFEF5E"/>
<path opacity="0.15" d="M63.1601 35.5032H8.83984V43.6107H63.1572V35.5032H63.1601Z" fill="black"/>
<path d="M68.8755 32.6425C68.8759 33.0181 68.8023 33.39 68.6588 33.737C68.5154 34.0841 68.3049 34.3995 68.0395 34.6651C67.7741 34.9308 67.459 35.1416 67.112 35.2853C66.7651 35.4291 66.3933 35.5032 66.0178 35.5032H5.98202C5.60649 35.5032 5.23465 35.4291 4.88774 35.2853C4.54084 35.1416 4.22567 34.9308 3.96027 34.6651C3.69486 34.3995 3.48442 34.0841 3.34098 33.737C3.19753 33.39 3.12389 33.0181 3.12427 32.6425V26.9242C3.12427 26.1662 3.42535 25.4394 3.96128 24.9034C4.49722 24.3675 5.2241 24.0664 5.98202 24.0664H66.0178C66.7757 24.0664 67.5026 24.3675 68.0385 24.9034C68.5744 25.4394 68.8755 26.1662 68.8755 26.9242V32.6454V32.6425Z" fill="#FFEF5E"/>
<path opacity="0.5" d="M68.8755 29.1293V26.9242C68.8755 26.1662 68.5744 25.4394 68.0385 24.9034C67.5026 24.3675 66.7757 24.0664 66.0178 24.0664H5.98202C5.2241 24.0664 4.49722 24.3675 3.96128 24.9034C3.42535 25.4394 3.12427 26.1662 3.12427 26.9242V29.1293H68.8755Z" fill="white"/>
<path d="M46.0051 24.0664H25.9951V35.5032H46.0051V24.0664Z" fill="#EC354D"/>
<path opacity="0.25" d="M46.0051 24.0664H25.9951V29.1293H46.0051V24.0664Z" fill="white"/>
<path d="M46.0051 35.5032H25.9951V69.8077H46.0051V35.5032Z" fill="#EC354D"/>
<path opacity="0.15" d="M46.0051 35.5032H25.9951V43.6107H46.0051V35.5032Z" fill="black"/>
<path d="M68.8755 32.6425C68.8759 33.0181 68.8023 33.39 68.6588 33.737C68.5154 34.0841 68.3049 34.3995 68.0395 34.6651C67.7741 34.9308 67.459 35.1416 67.112 35.2853C66.7651 35.4291 66.3933 35.5032 66.0178 35.5032H5.98202C5.60649 35.5032 5.23465 35.4291 4.88774 35.2853C4.54084 35.1416 4.22567 34.9308 3.96027 34.6651C3.69486 34.3995 3.48442 34.0841 3.34098 33.737C3.19753 33.39 3.12389 33.0181 3.12427 32.6425V26.9242C3.12427 26.1662 3.42535 25.4394 3.96128 24.9034C4.49722 24.3675 5.2241 24.0664 5.98202 24.0664H66.0178C66.7757 24.0664 67.5026 24.3675 68.0385 24.9034C68.5744 25.4394 68.8755 26.1662 68.8755 26.9242V32.6454V32.6425Z" stroke="#002F4F" stroke-width="3" stroke-linecap="round" stroke-linejoin="round"/>
<path d="M63.1601 66.9499C63.1593 67.7081 62.8576 68.435 62.3212 68.9708C61.7848 69.5067 61.0577 69.8077 60.2995 69.8077H11.7005C11.3249 69.808 10.953 69.7344 10.606 69.591C10.2589 69.4475 9.94355 69.2371 9.67788 68.9717C9.4122 68.7063 9.20145 68.3911 9.05765 68.0442C8.91386 67.6973 8.83984 67.3254 8.83984 66.9499V35.5032H63.1572V66.9499H63.1601Z" stroke="#002F4F" stroke-width="3" stroke-linecap="round" stroke-linejoin="round"/>
<path d="M25.9951 24.0664V69.8077" stroke="#002F4F" stroke-width="3" stroke-linecap="round" stroke-linejoin="round"/>
<path d="M46.0049 69.8077V24.0664" stroke="#002F4F" stroke-width="3" stroke-linecap="round" stroke-linejoin="round"/>
<path d="M51.5134 13.6014C49.3284 15.7893 38.8577 18.3481 38.8577 18.3481C38.8577 18.3481 41.4308 7.87732 43.6043 5.69232C44.1163 5.14024 44.7343 4.69711 45.4215 4.38947C46.1088 4.08182 46.851 3.91598 47.6038 3.90186C48.3566 3.88775 49.1045 4.02564 49.8027 4.30731C50.501 4.58897 51.1353 5.00861 51.6676 5.5411C52.1999 6.0736 52.6193 6.70802 52.9007 7.40638C53.1821 8.10474 53.3197 8.8527 53.3053 9.60549C53.2909 10.3583 53.1248 11.1004 52.8169 11.7875C52.509 12.4746 52.0657 13.0926 51.5134 13.6043V13.6014Z" stroke="#002F4F" stroke-width="3" stroke-linecap="round" stroke-linejoin="round"/>
<path d="M20.4864 13.6015C22.6714 15.7893 33.1422 18.3481 33.1422 18.3481C33.1422 18.3481 30.5662 7.88022 28.3956 5.69522C27.3393 4.6811 25.9276 4.1215 24.4634 4.13653C22.9991 4.15156 21.5992 4.74002 20.564 5.77561C19.5288 6.81121 18.9408 8.21138 18.9263 9.67559C18.9118 11.1398 19.4719 12.5513 20.4864 13.6072V13.6015Z" stroke="#002F4F" stroke-width="3" stroke-linecap="round" stroke-linejoin="round"/>
</svg>
