<svg width="20" height="20" viewBox="0 0 20 20" fill="none" xmlns="http://www.w3.org/2000/svg">
<path d="M17.2953 8.67353C17.2953 13.352 11.8807 17.5148 10.6005 18.4337C10.4249 18.5598 10.2162 18.6217 9.99995 18.6217C9.78373 18.6217 9.57504 18.5598 9.39938 18.4337C8.11916 17.5148 2.70459 13.352 2.70459 8.67353C2.70459 4.64441 5.97083 1.37817 9.99995 1.37817C14.0291 1.37817 17.2953 4.64441 17.2953 8.67353Z" stroke="#1CCCF3" stroke-width="1.43" stroke-linecap="round" stroke-linejoin="round"/>
<path d="M7.34717 8.01028C7.34717 8.35866 7.41579 8.70362 7.5491 9.02548C7.68242 9.34734 7.87783 9.63979 8.12417 9.88613C8.37051 10.1325 8.66296 10.3279 8.98482 10.4612C9.30668 10.5945 9.65165 10.6631 10 10.6631C10.3484 10.6631 10.6934 10.5945 11.0152 10.4612C11.3371 10.3279 11.6295 10.1325 11.8759 9.88613C12.1222 9.63979 12.3176 9.34734 12.4509 9.02548C12.5843 8.70362 12.6529 8.35866 12.6529 8.01028C12.6529 7.6619 12.5843 7.31693 12.4509 6.99507C12.3176 6.67322 12.1222 6.38077 11.8759 6.13443C11.6295 5.88809 11.3371 5.69268 11.0152 5.55936C10.6934 5.42604 10.3484 5.35742 10 5.35742C9.65165 5.35742 9.30668 5.42604 8.98482 5.55936C8.66296 5.69268 8.37051 5.88809 8.12417 6.13443C7.87783 6.38077 7.68242 6.67322 7.5491 6.99507C7.41579 7.31693 7.34717 7.6619 7.34717 8.01028Z" stroke="#1CCCF3" stroke-width="1.43" stroke-linecap="round" stroke-linejoin="round"/>
</svg>
