<svg width="28" height="29" viewBox="0 0 28 29" fill="none" xmlns="http://www.w3.org/2000/svg">
<path d="M18.6427 24.7141C21.7198 24.7141 24.2141 22.2198 24.2141 19.1427C24.2141 16.0657 21.7198 13.5713 18.6427 13.5713C15.5657 13.5713 13.0713 16.0657 13.0713 19.1427C13.0713 22.2198 15.5657 24.7141 18.6427 24.7141Z" stroke="#EC354D" stroke-width="2" stroke-linecap="round" stroke-linejoin="round"/>
<path d="M26.0713 26.5713L22.5823 23.0823" stroke="#EC354D" stroke-width="2" stroke-linecap="round" stroke-linejoin="round"/>
<path d="M16.7856 4.28564V9.49586" stroke="#EC354D" stroke-width="2" stroke-linecap="round" stroke-linejoin="round"/>
<path d="M9.35693 2.42847V22.857" stroke="#EC354D" stroke-width="2" stroke-linecap="round" stroke-linejoin="round"/>
<path d="M9.35704 22.857L4.23604 24.1374C3.06391 24.4304 1.92847 23.5438 1.92847 22.3356V5.73563C1.92847 4.88344 2.50845 4.14062 3.33518 3.93392L9.35704 2.42847L16.7856 4.28561L21.9067 3.00536C23.0787 2.71233 24.2142 3.59886 24.2142 4.80706V11.0909" stroke="#EC354D" stroke-width="2" stroke-linecap="round" stroke-linejoin="round"/>
</svg>
