<svg width="20" height="20" viewBox="0 0 20 20" fill="none" xmlns="http://www.w3.org/2000/svg">
<g clip-path="url(#clip0_12734_5326)">
<path d="M10.6244 18.0515C11.3121 18.4943 12.1305 18.6884 12.9437 18.6015C13.7569 18.5146 14.5159 18.1521 15.0945 17.574L15.5985 17.07C15.8221 16.844 15.9475 16.5389 15.9475 16.2211C15.9475 15.9031 15.8221 15.5982 15.5985 15.3722L13.4763 13.2631C13.2525 13.0404 12.9497 12.9153 12.634 12.9153C12.3183 12.9153 12.0154 13.0404 11.7917 13.2631C11.5657 13.4867 11.2607 13.6121 10.9428 13.6121C10.6249 13.6121 10.3198 13.4867 10.0939 13.2631L6.71147 9.88074C6.4879 9.65475 6.36251 9.34971 6.36251 9.03182C6.36251 8.71394 6.4879 8.40889 6.71147 8.18291C6.93421 7.95919 7.05927 7.65633 7.05927 7.34062C7.05927 7.02492 6.93421 6.72207 6.71147 6.49834L4.66881 4.37606C4.44278 4.1525 4.13771 4.0271 3.81989 4.0271C3.50195 4.0271 3.19687 4.1525 2.97098 4.37606L2.46694 4.8801C1.87853 5.45052 1.50355 6.20547 1.4046 7.01897C1.30565 7.83248 1.48856 8.65531 1.9231 9.35016C4.23599 12.784 7.1906 15.7387 10.6244 18.0515Z" stroke="#1CCCF3" stroke-width="1.43" stroke-linecap="round" stroke-linejoin="round"/>
<path d="M10 1.37817C11.1323 1.37817 12.2534 1.60118 13.2995 2.03447C14.3455 2.46776 15.296 3.10284 16.0966 3.90344C16.8972 4.70405 17.5322 5.6545 17.9655 6.70055C18.3988 7.74658 18.6218 8.86773 18.6218 9.99996" stroke="#1CCCF3" stroke-width="1.43" stroke-linecap="round" stroke-linejoin="round"/>
<path d="M9.99995 4.69434C11.4071 4.69434 12.7566 5.25333 13.7517 6.24834C14.7467 7.24336 15.3057 8.59288 15.3057 10.0001" stroke="#1CCCF3" stroke-width="1.43" stroke-linecap="round" stroke-linejoin="round"/>
</g>
<defs>
<clipPath id="clip0_12734_5326">
<rect width="20" height="20" fill="white" transform="matrix(-1 0 0 1 20 0)"/>
</clipPath>
</defs>
</svg>
