<svg width="28" height="29" viewBox="0 0 28 29" fill="none" xmlns="http://www.w3.org/2000/svg">
<path d="M14.8743 26.1616C15.837 26.7815 16.9829 27.0532 18.1215 26.9316C19.2601 26.8099 20.3228 26.3024 21.1328 25.493L21.8386 24.7873C22.1516 24.4709 22.3271 24.0437 22.3271 23.5988C22.3271 23.1536 22.1516 22.7266 21.8386 22.4102L18.8671 19.4573C18.5539 19.1454 18.1299 18.9704 17.6878 18.9704C17.2458 18.9704 16.8218 19.1454 16.5086 19.4573C16.1922 19.7703 15.765 19.9459 15.32 19.9459C14.8749 19.9459 14.4478 19.7703 14.1314 19.4573L9.3957 14.7216C9.08268 14.4052 8.90712 13.9781 8.90712 13.533C8.90712 13.088 9.08268 12.6609 9.3957 12.3445C9.70757 12.0312 9.88266 11.6072 9.88266 11.1652C9.88266 10.7232 9.70757 10.2991 9.3957 9.98588L6.53575 7.01446C6.21929 6.70145 5.79215 6.52588 5.34718 6.52588C4.90202 6.52588 4.47488 6.70145 4.15861 7.01446L3.45289 7.72017C2.62907 8.51882 2.10405 9.57583 1.96551 10.7148C1.82697 11.8538 2.08307 13.0059 2.69147 13.9787C5.92977 18.7865 10.0665 22.9233 14.8743 26.1616Z" stroke="#EC354D" stroke-width="2" stroke-linecap="round" stroke-linejoin="round"/>
<path d="M14.0001 2.81738C15.5853 2.81738 17.1551 3.12962 18.6196 3.73627C20.0842 4.34291 21.415 5.2321 22.5359 6.35303C23.6568 7.47396 24.546 8.8047 25.1527 10.2693C25.7593 11.7338 26.0715 13.3036 26.0715 14.8888" stroke="#EC354D" stroke-width="2" stroke-linecap="round" stroke-linejoin="round"/>
<path d="M14.0001 7.46045C15.9703 7.46045 17.8598 8.2431 19.2529 9.63622C20.6461 11.0294 21.4287 12.9188 21.4287 14.889" stroke="#EC354D" stroke-width="2" stroke-linecap="round" stroke-linejoin="round"/>
</svg>
