<svg width="26" height="22" viewBox="0 0 26 22" fill="none" xmlns="http://www.w3.org/2000/svg">
<path d="M7.45312 8.91309C7.26562 9.10059 6.98438 9.19434 6.75 9.19434H2.625C2.39062 9.19434 2.25 9.38184 2.25 9.56934V13.3193C2.25 13.5537 2.39062 13.6943 2.625 13.6943H6.75C6.98438 13.6943 7.26562 13.835 7.45312 14.0225L12.75 18.6631V4.27246L7.45312 8.91309ZM13.5938 0.944336C14.3438 0.944336 15 1.60059 15 2.35059V20.585C15 21.335 14.3438 21.9443 13.5938 21.9443C13.2188 21.9443 12.8906 21.8506 12.6562 21.6162L6.28125 15.9443H2.625C1.17188 15.9443 0 14.7725 0 13.3193V9.56934C0 8.16309 1.17188 6.94434 2.625 6.94434H6.28125L12.6562 1.31934C12.8906 1.08496 13.2188 0.944336 13.5938 0.944336ZM22.1719 4.45996V4.50684C24.1875 6.14746 25.5 8.63184 25.5 11.4912C25.5 14.3037 24.1875 16.7881 22.1719 18.4756C21.6562 18.8506 20.9531 18.7568 20.5781 18.2881C20.2031 17.8193 20.25 17.1162 20.7188 16.6943C22.2656 15.4756 23.25 13.6006 23.25 11.4443C23.25 9.33496 22.2656 7.45996 20.7188 6.24121C20.25 5.81934 20.1562 5.11621 20.5781 4.64746C20.9531 4.17871 21.6562 4.08496 22.1719 4.45996ZM19.3125 7.97559C20.3438 8.81934 21 10.0381 21 11.4443C21 12.8975 20.3438 14.1162 19.3125 14.96C18.8438 15.335 18.1406 15.2881 17.7188 14.8193C17.3438 14.3037 17.4375 13.6006 17.9062 13.2256C18.4219 12.8037 18.75 12.1475 18.75 11.4443C18.75 10.7412 18.4219 10.1318 17.9062 9.70996C17.4375 9.33496 17.3438 8.63184 17.7188 8.11621C18.1406 7.64746 18.8438 7.60059 19.3125 7.97559Z" fill="url(#paint0_linear_12734_3642)"/>
<defs>
<linearGradient id="paint0_linear_12734_3642" x1="-1.5" y1="-0.555664" x2="22.3345" y2="26.2581" gradientUnits="userSpaceOnUse">
<stop stop-color="#1CCCF3"/>
<stop offset="1" stop-color="#005F9F"/>
</linearGradient>
</defs>
</svg>
