<svg width="16" height="19" viewBox="0 0 16 19" fill="none" xmlns="http://www.w3.org/2000/svg">
<path d="M4.625 0.25C5.22266 0.25 5.75 0.777344 5.75 1.375V2.5H10.25V1.375C10.25 0.777344 10.7422 0.25 11.375 0.25C11.9727 0.25 12.5 0.777344 12.5 1.375V2.5H14.1875C15.1016 2.5 15.875 3.27344 15.875 4.1875V5.875H0.125V4.1875C0.125 3.27344 0.863281 2.5 1.8125 2.5H3.5V1.375C3.5 0.777344 3.99219 0.25 4.625 0.25ZM0.125 7H15.875V16.5625C15.875 17.5117 15.1016 18.25 14.1875 18.25H1.8125C0.863281 18.25 0.125 17.5117 0.125 16.5625V7ZM11.6914 10.9727C12.0078 10.6562 12.0078 10.1289 11.6914 9.8125C11.3398 9.46094 10.8125 9.46094 10.4961 9.8125L7.15625 13.1523L5.50391 11.5C5.15234 11.1484 4.625 11.1484 4.30859 11.5C3.95703 11.8164 3.95703 12.3438 4.30859 12.6602L6.55859 14.9102C6.875 15.2617 7.40234 15.2617 7.75391 14.9102L11.6914 10.9727Z" fill="#005F9F"/>
</svg>
