<svg width="15" height="15" viewBox="0 0 15 15" fill="none" xmlns="http://www.w3.org/2000/svg">
<path d="M0 1.625C0 1.16016 0.382812 0.75 0.875 0.75H2.625C3.08984 0.75 3.5 1.16016 3.5 1.625V3.375H0V1.625ZM0 4.25H3.5V11.25H0V4.25ZM0 12.125H3.5V13.875C3.5 14.3672 3.08984 14.75 2.625 14.75H0.875C0.382812 14.75 0 14.3672 0 13.875V12.125ZM4.375 1.625C4.375 1.16016 4.75781 0.75 5.25 0.75H7C7.46484 0.75 7.875 1.16016 7.875 1.625V3.375H4.375V1.625ZM4.375 4.25H7.875V11.25H4.375V4.25ZM4.375 12.125H7.875V13.875C7.875 14.3672 7.46484 14.75 7 14.75H5.25C4.75781 14.75 4.375 14.3672 4.375 13.875V12.125ZM9.92578 11.6055L8.75 7.12109V4.66016L11.4844 3.92188L13.2891 10.7031L9.92578 11.6055ZM11.2656 3.07422L8.75 3.75781V1.05078L9.73438 0.804688C10.1992 0.667969 10.6914 0.941406 10.8008 1.40625L11.2656 3.07422ZM10.1445 12.4258L13.5078 11.5508L13.9453 13.2188C14.082 13.6836 13.8086 14.1484 13.3438 14.2852L11.6758 14.7227C11.2109 14.8594 10.7188 14.5859 10.6094 14.1211L10.1445 12.4258Z" fill="#4E555C"/>
</svg>
