<svg width="16" height="15" viewBox="0 0 16 15" fill="none" xmlns="http://www.w3.org/2000/svg">
<path d="M8 14.75C5.48438 14.75 3.1875 13.4375 1.92969 11.25C0.671875 9.08984 0.671875 6.4375 1.92969 4.25C3.1875 2.08984 5.48438 0.75 8 0.75C10.4883 0.75 12.7852 2.08984 14.043 4.25C15.3008 6.4375 15.3008 9.08984 14.043 11.25C12.7852 13.4375 10.4883 14.75 8 14.75ZM7.34375 10.1562C7.34375 10.5391 7.61719 10.8125 8 10.8125C8.35547 10.8125 8.65625 10.5391 8.65625 10.1562V8.40625H10.4062C10.7617 8.40625 11.0625 8.13281 11.0625 7.75C11.0625 7.39453 10.7617 7.09375 10.4062 7.09375H8.65625V5.34375C8.65625 4.98828 8.35547 4.6875 8 4.6875C7.61719 4.6875 7.34375 4.98828 7.34375 5.34375V7.09375H5.59375C5.21094 7.09375 4.9375 7.39453 4.9375 7.75C4.9375 8.13281 5.21094 8.40625 5.59375 8.40625H7.34375V10.1562Z" fill="#4E555C"/>
</svg>
