<svg width="16" height="15" viewBox="0 0 16 15" fill="none" xmlns="http://www.w3.org/2000/svg">
<path d="M8 14.75C5.48438 14.75 3.1875 13.4375 1.92969 11.25C0.671875 9.08984 0.671875 6.4375 1.92969 4.25C3.1875 2.08984 5.48438 0.75 8 0.75C10.4883 0.75 12.7852 2.08984 14.043 4.25C15.3008 6.4375 15.3008 9.08984 14.043 11.25C12.7852 13.4375 10.4883 14.75 8 14.75ZM8 4.25C7.61719 4.25 7.34375 4.55078 7.34375 4.90625V7.96875C7.34375 8.35156 7.61719 8.625 8 8.625C8.35547 8.625 8.65625 8.35156 8.65625 7.96875V4.90625C8.65625 4.55078 8.35547 4.25 8 4.25ZM7.125 10.375C7.125 10.8672 7.50781 11.25 8 11.25C8.46484 11.25 8.875 10.8672 8.875 10.375C8.875 9.91016 8.46484 9.5 8 9.5C7.50781 9.5 7.125 9.91016 7.125 10.375Z" fill="#4E555C"/>
</svg>
