<svg width="18" height="15" viewBox="0 0 18 15" fill="none" xmlns="http://www.w3.org/2000/svg">
<path d="M9 0.75C9.46484 0.75 9.875 1.16016 9.875 1.625V3.375H13.1562C14.2227 3.375 15.125 4.27734 15.125 5.34375V12.7812C15.125 13.875 14.2227 14.75 13.1562 14.75H4.84375C3.75 14.75 2.875 13.875 2.875 12.7812V5.34375C2.875 4.27734 3.75 3.375 4.84375 3.375H8.125V1.625C8.125 1.16016 8.50781 0.75 9 0.75ZM5.9375 11.25C5.69141 11.25 5.5 11.4688 5.5 11.6875C5.5 11.9336 5.69141 12.125 5.9375 12.125H6.8125C7.03125 12.125 7.25 11.9336 7.25 11.6875C7.25 11.4688 7.03125 11.25 6.8125 11.25H5.9375ZM8.5625 11.25C8.31641 11.25 8.125 11.4688 8.125 11.6875C8.125 11.9336 8.31641 12.125 8.5625 12.125H9.4375C9.65625 12.125 9.875 11.9336 9.875 11.6875C9.875 11.4688 9.65625 11.25 9.4375 11.25H8.5625ZM11.1875 11.25C10.9414 11.25 10.75 11.4688 10.75 11.6875C10.75 11.9336 10.9414 12.125 11.1875 12.125H12.0625C12.2812 12.125 12.5 11.9336 12.5 11.6875C12.5 11.4688 12.2812 11.25 12.0625 11.25H11.1875ZM7.46875 7.75C7.46875 7.36719 7.25 7.01172 6.92188 6.82031C6.56641 6.62891 6.15625 6.62891 5.82812 6.82031C5.47266 7.01172 5.28125 7.36719 5.28125 7.75C5.28125 8.16016 5.47266 8.51562 5.82812 8.70703C6.15625 8.89844 6.56641 8.89844 6.92188 8.70703C7.25 8.51562 7.46875 8.16016 7.46875 7.75ZM11.625 8.84375C12.0078 8.84375 12.3633 8.65234 12.5547 8.29688C12.7461 7.96875 12.7461 7.55859 12.5547 7.20312C12.3633 6.875 12.0078 6.65625 11.625 6.65625C11.2148 6.65625 10.8594 6.875 10.668 7.20312C10.4766 7.55859 10.4766 7.96875 10.668 8.29688C10.8594 8.65234 11.2148 8.84375 11.625 8.84375ZM1.5625 6.875H2V12.125H1.5625C0.824219 12.125 0.25 11.5508 0.25 10.8125V8.1875C0.25 7.47656 0.824219 6.875 1.5625 6.875ZM16.4375 6.875C17.1484 6.875 17.75 7.47656 17.75 8.1875V10.8125C17.75 11.5508 17.1484 12.125 16.4375 12.125H16V6.875H16.4375Z" fill="#4E555C"/>
</svg>
