<svg width="22" height="19" viewBox="0 0 22 19" fill="none" xmlns="http://www.w3.org/2000/svg">
<path d="M11 0.75C11.5469 0.75 12.0547 1.0625 12.3281 1.53125L20.7656 15.9062C21.0391 16.4141 21.0391 17 20.7656 17.4688C20.4922 17.9766 19.9844 18.25 19.4375 18.25H2.5625C1.97656 18.25 1.46875 17.9766 1.19531 17.4688C0.921875 17 0.921875 16.4141 1.19531 15.9062L9.63281 1.53125C9.90625 1.0625 10.4141 0.75 11 0.75ZM11 5.75C10.4531 5.75 10.0625 6.17969 10.0625 6.6875V11.0625C10.0625 11.6094 10.4531 12 11 12C11.5078 12 11.9375 11.6094 11.9375 11.0625V6.6875C11.9375 6.17969 11.5078 5.75 11 5.75ZM12.25 14.5C12.25 13.8359 11.6641 13.25 11 13.25C10.2969 13.25 9.75 13.8359 9.75 14.5C9.75 15.2031 10.2969 15.75 11 15.75C11.6641 15.75 12.25 15.2031 12.25 14.5Z" fill="url(#paint0_linear_12586_10010)"/>
<defs>
<linearGradient id="paint0_linear_12586_10010" x1="1" y1="-1" x2="24.7034" y2="12.4953" gradientUnits="userSpaceOnUse">
<stop stop-color="#EC367C"/>
<stop offset="1" stop-color="#BA0A4A"/>
</linearGradient>
</defs>
</svg>
