<svg width="27" height="24" viewBox="0 0 27 24" fill="none" xmlns="http://www.w3.org/2000/svg">
<path d="M3 0H24C25.6406 0 27 1.35938 27 3V16.5C27 18.1875 25.6406 19.5 24 19.5H15.75L16.2188 21H19.5C20.2969 21 21 21.7031 21 22.5C21 23.3438 20.2969 24 19.5 24H7.5C6.65625 24 6 23.3438 6 22.5C6 21.7031 6.65625 21 7.5 21H10.7344L11.25 19.5H3C1.3125 19.5 0 18.1875 0 16.5V3C0 1.35938 1.3125 0 3 0ZM24 3H3V16.5H24V3Z" fill="url(#paint0_linear_12734_4887)"/>
<defs>
<linearGradient id="paint0_linear_12734_4887" x1="0" y1="0" x2="23.8345" y2="26.8138" gradientUnits="userSpaceOnUse">
<stop stop-color="#1CCCF3"/>
<stop offset="1" stop-color="#005F9F"/>
</linearGradient>
</defs>
</svg>
