<svg width="22" height="20" viewBox="0 0 22 20" fill="none" xmlns="http://www.w3.org/2000/svg">
<path d="M9.75 14.0234L7.5625 11.25H3.57812C4.125 14.4141 6.58594 16.875 9.75 17.4219V14.0234ZM12.25 14.0234V17.4219C15.375 16.875 17.8359 14.4141 18.3828 11.25H14.3984L12.25 14.0234ZM14.75 8.75H18.3828C17.7969 5.23438 14.7109 2.5 11 2.5C7.25 2.5 4.16406 5.23438 3.57812 8.75H7.25L7.52344 8.20312C7.71875 7.77344 8.14844 7.5 8.61719 7.5H13.3438C13.8125 7.5 14.2422 7.77344 14.4375 8.20312L14.75 8.75ZM11 20C7.40625 20 4.125 18.125 2.32812 15C0.53125 11.9141 0.53125 8.125 2.32812 5C4.125 1.91406 7.40625 0 11 0C14.5547 0 17.8359 1.91406 19.6328 5C21.4297 8.125 21.4297 11.9141 19.6328 15C17.8359 18.125 14.5547 20 11 20Z" fill="url(#paint0_linear_12586_10018)"/>
<defs>
<linearGradient id="paint0_linear_12586_10018" x1="1" y1="-0.5" x2="21" y2="19.5" gradientUnits="userSpaceOnUse">
<stop stop-color="#1CCCF3"/>
<stop offset="1" stop-color="#005F9F"/>
</linearGradient>
</defs>
</svg>
