<svg width="23" height="18" viewBox="0 0 23 18" fill="none" xmlns="http://www.w3.org/2000/svg">
<path d="M10 0.25V2.75C10 3.45312 10.5469 4 11.25 4C11.9141 4 12.5 3.45312 12.5 2.75V0.25H15.3906C16.4453 0.25 17.4219 0.953125 17.7734 1.92969L22.3438 14.9375C22.4219 15.1328 22.5 15.4062 22.5 15.6406C22.5 16.8125 21.5234 17.75 20.3516 17.75H12.5V15.25C12.5 14.5859 11.9141 14 11.25 14C10.5469 14 10 14.5859 10 15.25V17.75H2.10938C0.9375 17.75 0 16.8125 0 15.6406C0 15.4062 0.0390625 15.1328 0.117188 14.9375L4.6875 1.92969C5.03906 0.953125 6.01562 0.25 7.07031 0.25H10ZM12.5 7.75C12.5 7.08594 11.9141 6.5 11.25 6.5C10.5469 6.5 10 7.08594 10 7.75V10.25C10 10.9531 10.5469 11.5 11.25 11.5C11.9141 11.5 12.5 10.9531 12.5 10.25V7.75Z" fill="url(#paint0_linear_12586_10014)"/>
<defs>
<linearGradient id="paint0_linear_12586_10014" x1="0" y1="-1.5" x2="19.8062" y2="21.2772" gradientUnits="userSpaceOnUse">
<stop stop-color="#FBDB4C"/>
<stop offset="1" stop-color="#FBAE4C"/>
</linearGradient>
</defs>
</svg>
