<svg width="27" height="22" viewBox="0 0 27 22" fill="none" xmlns="http://www.w3.org/2000/svg">
<path d="M12 0.5V3.5C12 4.34375 12.6562 5 13.5 5C14.2969 5 15 4.34375 15 3.5V0.5H18.4688C19.7344 0.5 20.9062 1.34375 21.3281 2.51562L26.8125 18.125C26.9062 18.3594 27 18.6875 27 18.9688C27 20.375 25.8281 21.5 24.4219 21.5H15V18.5C15 17.7031 14.2969 17 13.5 17C12.6562 17 12 17.7031 12 18.5V21.5H2.53125C1.125 21.5 0 20.375 0 18.9688C0 18.6875 0.046875 18.3594 0.140625 18.125L5.625 2.51562C6.04688 1.34375 7.21875 0.5 8.48438 0.5H12ZM15 9.5C15 8.70312 14.2969 8 13.5 8C12.6562 8 12 8.70312 12 9.5V12.5C12 13.3438 12.6562 14 13.5 14C14.2969 14 15 13.3438 15 12.5V9.5Z" fill="url(#paint0_linear_12734_4892)"/>
<defs>
<linearGradient id="paint0_linear_12734_4892" x1="0" y1="-1" x2="23.8345" y2="25.8138" gradientUnits="userSpaceOnUse">
<stop stop-color="#1CCCF3"/>
<stop offset="1" stop-color="#005F9F"/>
</linearGradient>
</defs>
</svg>
