<svg width="25" height="26" viewBox="0 0 25 26" fill="none" xmlns="http://www.w3.org/2000/svg">
<path d="M0 2.5C0 1.70312 0.65625 1 1.5 1H4.5C5.29688 1 6 1.70312 6 2.5V5.5H0V2.5ZM0 7H6V19H0V7ZM0 20.5H6V23.5C6 24.3438 5.29688 25 4.5 25H1.5C0.65625 25 0 24.3438 0 23.5V20.5ZM7.5 2.5C7.5 1.70312 8.15625 1 9 1H12C12.7969 1 13.5 1.70312 13.5 2.5V5.5H7.5V2.5ZM7.5 7H13.5V19H7.5V7ZM7.5 20.5H13.5V23.5C13.5 24.3438 12.7969 25 12 25H9C8.15625 25 7.5 24.3438 7.5 23.5V20.5ZM17.0156 19.6094L15 11.9219V7.70312L19.6875 6.4375L22.7812 18.0625L17.0156 19.6094ZM19.3125 4.98438L15 6.15625V1.51562L16.6875 1.09375C17.4844 0.859375 18.3281 1.32812 18.5156 2.125L19.3125 4.98438ZM17.3906 21.0156L23.1562 19.5156L23.9062 22.375C24.1406 23.1719 23.6719 23.9688 22.875 24.2031L20.0156 24.9531C19.2188 25.1875 18.375 24.7188 18.1875 23.9219L17.3906 21.0156Z" fill="url(#paint0_linear_12734_339)"/>
<defs>
<linearGradient id="paint0_linear_12734_339" x1="0" y1="1" x2="24" y2="25" gradientUnits="userSpaceOnUse">
<stop stop-color="#1CCCF3"/>
<stop offset="1" stop-color="#005F9F"/>
</linearGradient>
</defs>
</svg>
